<svg id="svg" class="path" style="background-color: rgb(233, 171, 109);" title="background" version="1.1" xmlns="http://www.w3.org/2000/svg"><path fill="#e7a56a" stroke="#e7a56a" d="M -80 1344 L -80 0 C -64.77777777777777 0, 41.77777777777778 -31, 57 -31 C 65.66666666666667 -31, 126.33333333333333 -40, 135 -40 C 147.11111111111111 -40, 231.88888888888889 -36, 244 -36 C 257.55555555555554 -36, 352.44444444444446 45, 366 45 C 374.22222222222223 45, 431.77777777777777 28, 440 28 C 453 28, 544 33, 557 33 C 567.5555555555555 33, 641.4444444444445 38, 652 38 C 664 38, 748 39, 760 39 C 773.2222222222222 39, 865.7777777777778 45, 879 45 C 887.8888888888889 45, 950.1111111111111 -45, 959 -45 C 974.2222222222222 -45, 1080.7777777777778 32, 1096 32 C 1106.7777777777778 32, 1182.2222222222222 -44, 1193 -44 C 1207.111111111111 -44, 1305.888888888889 35, 1320 35 C 1330.2222222222222 35, 1401.7777777777778 40, 1412 40 C 1427.111111111111 40, 1532.888888888889 -29, 1548 -29 C 1558.7777777777778 -29, 1634.2222222222222 31, 1645 31 C 1654.5555555555557 31, 1721.4444444444443 35, 1731 35 C 1742.888888888889 35, 1826.111111111111 29, 1838 29 C 1850.3333333333333 29, 1936.6666666666667 23, 1949 23 C 1959 23, 2029 40, 2039 40 C 2051.222222222222 40, 2136.777777777778 38, 2149 38 C 2164.1111111111113 38, 2269.8888888888887 -33, 2285 -33 C 2299.8888888888887 -33, 2404.1111111111113 -23, 2419 -23 C 2431.222222222222 -23, 2516.777777777778 -35, 2529 -35 C 2544.3333333333335 -35, 2651.6666666666665 32, 2667 32 L 2640 0 L 2640 1344 Z"></path><path fill="#e59f68" stroke="#e59f68" d="M -80 1344 L -82 31 C -70.11111111111111 31, 13.11111111111111 54, 25 54 C 38.333333333333336 54, 131.66666666666666 -14, 145 -14 C 153.88888888888889 -14, 216.11111111111111 -2, 225 -2 C 240.33333333333334 -2, 347.6666666666667 -4, 363 -4 C 373.6666666666667 -4, 448.3333333333333 -6, 459 -6 C 469.6666666666667 -6, 544.3333333333334 67, 555 67 C 563.3333333333334 67, 621.6666666666666 -14, 630 -14 C 639.4444444444445 -14, 705.5555555555555 -1, 715 -1 C 726.4444444444445 -1, 806.5555555555555 -9, 818 -9 C 825.7777777777778 -9, 880.2222222222222 -1, 888 -1 C 896.2222222222222 -1, 953.7777777777778 2, 962 2 C 974.2222222222222 2, 1059.7777777777778 -13, 1072 -13 C 1083.5555555555557 -13, 1164.4444444444443 63, 1176 63 C 1185 63, 1248 -9, 1257 -9 C 1268.111111111111 -9, 1345.888888888889 60, 1357 60 C 1368.888888888889 60, 1452.111111111111 71, 1464 71 C 1478 71, 1576 70, 1590 70 C 1600.111111111111 70, 1670.888888888889 -11, 1681 -11 C 1696.2222222222222 -11, 1802.7777777777778 6, 1818 6 C 1829.7777777777778 6, 1912.2222222222222 -13, 1924 -13 C 1932.888888888889 -13, 1995.111111111111 63, 2004 63 C 2012.4444444444443 63, 2071.5555555555557 64, 2080 64 C 2093.8888888888887 64, 2191.1111111111113 -9, 2205 -9 C 2213.8888888888887 -9, 2276.1111111111113 74, 2285 74 C 2295.222222222222 74, 2366.777777777778 -6, 2377 -6 C 2389.1111111111113 -6, 2473.8888888888887 54, 2486 54 C 2495.8888888888887 54, 2565.1111111111113 7, 2575 7 L 2640 31 L 2640 1344 Z"></path><path fill="#e29966" stroke="#e29966" d="M -80 1344 L -84 63 C -69.66666666666667 63, 30.666666666666664 99, 45 99 C 58.333333333333336 99, 151.66666666666666 101, 165 101 C 173.55555555555554 101, 233.44444444444446 103, 242 103 C 253.88888888888889 103, 337.1111111111111 19, 349 19 C 358.55555555555554 19, 425.44444444444446 20, 435 20 C 449.3333333333333 20, 549.6666666666666 33, 564 33 C 575.7777777777778 33, 658.2222222222222 102, 670 102 C 679.6666666666666 102, 747.3333333333334 91, 757 91 C 769.6666666666666 91, 858.3333333333334 102, 871 102 C 882.5555555555555 102, 963.4444444444445 34, 975 34 C 984 34, 1047 103, 1056 103 C 1067 103, 1144 89, 1155 89 C 1165.4444444444443 89, 1238.5555555555557 100, 1249 100 C 1264.2222222222222 100, 1370.7777777777778 91, 1386 91 C 1395.111111111111 91, 1458.888888888889 90, 1468 90 C 1477.4444444444443 90, 1543.5555555555557 108, 1553 108 C 1563.888888888889 108, 1640.111111111111 105, 1651 105 C 1659.7777777777778 105, 1721.2222222222222 39, 1730 39 C 1743.3333333333333 39, 1836.6666666666667 38, 1850 38 C 1859.7777777777778 38, 1928.2222222222222 19, 1938 19 C 1948.7777777777778 19, 2024.2222222222222 25, 2035 25 C 2049 25, 2147 98, 2161 98 C 2173.222222222222 98, 2258.777777777778 92, 2271 92 C 2285.6666666666665 92, 2388.3333333333335 18, 2403 18 C 2417 18, 2515 19, 2529 19 C 2541.1111111111113 19, 2625.8888888888887 88, 2638 88 L 2640 63 L 2640 1344 Z"></path><path fill="#e09364" stroke="#e09364" d="M -80 1344 L -86 94 C -76.88888888888889 94, -13.11111111111111 52, -4 52 C 6.222222222222221 52, 77.77777777777777 61, 88 61 C 100.22222222222223 61, 185.77777777777777 56, 198 56 C 206.33333333333334 56, 264.6666666666667 56, 273 56 C 281.8888888888889 56, 344.1111111111111 51, 353 51 C 360.8888888888889 51, 416.1111111111111 130, 424 130 C 434.22222222222223 130, 505.77777777777777 120, 516 120 C 527.2222222222222 120, 605.7777777777778 121, 617 121 C 631.3333333333334 121, 731.6666666666666 64, 746 64 C 759.6666666666666 64, 855.3333333333334 123, 869 123 C 876.8888888888889 123, 932.1111111111111 52, 940 52 C 951.4444444444445 52, 1031.5555555555557 128, 1043 128 C 1053.3333333333333 128, 1125.6666666666667 67, 1136 67 C 1147 67, 1224 55, 1235 55 C 1250.111111111111 55, 1355.888888888889 132, 1371 132 C 1383.7777777777778 132, 1473.2222222222222 130, 1486 130 C 1494.2222222222222 130, 1551.7777777777778 132, 1560 132 C 1568.5555555555557 132, 1628.4444444444443 122, 1637 122 C 1647.888888888889 122, 1724.111111111111 117, 1735 117 C 1743.3333333333333 117, 1801.6666666666667 133, 1810 133 C 1823.3333333333333 133, 1916.6666666666667 119, 1930 119 C 1940.4444444444443 119, 2013.5555555555557 70, 2024 70 C 2033.4444444444443 70, 2099.5555555555557 120, 2109 120 C 2121.3333333333335 120, 2207.6666666666665 126, 2220 126 C 2235.3333333333335 126, 2342.6666666666665 120, 2358 120 C 2370.6666666666665 120, 2459.3333333333335 130, 2472 130 C 2482.3333333333335 130, 2554.6666666666665 117, 2565 117 L 2640 94 L 2640 1344 Z"></path><path fill="#dd8d63" stroke="#dd8d63" d="M -80 1344 L -88 126 C -79.44444444444444 126, -19.555555555555557 101, -11 101 C 2.333333333333334 101, 95.66666666666667 158, 109 158 C 121.44444444444444 158, 208.55555555555554 101, 221 101 C 231.55555555555554 101, 305.44444444444446 159, 316 159 C 330.6666666666667 159, 433.3333333333333 150, 448 150 C 460.8888888888889 150, 551.1111111111111 97, 564 97 C 574.5555555555555 97, 648.4444444444445 98, 659 98 C 673 98, 771 156, 785 156 C 793.1111111111111 156, 849.8888888888889 155, 858 155 C 871.6666666666666 155, 967.3333333333334 92, 981 92 C 991.6666666666666 92, 1066.3333333333333 158, 1077 158 C 1084.888888888889 158, 1140.111111111111 157, 1148 157 C 1163.2222222222222 157, 1269.7777777777778 84, 1285 84 C 1295.4444444444443 84, 1368.5555555555557 88, 1379 88 C 1391.111111111111 88, 1475.888888888889 103, 1488 103 C 1503.4444444444443 103, 1611.5555555555557 88, 1627 88 C 1642 88, 1747 168, 1762 168 C 1774.3333333333333 168, 1860.6666666666667 158, 1873 158 C 1887.3333333333333 158, 1987.6666666666667 88, 2002 88 C 2012.6666666666667 88, 2087.3333333333335 150, 2098 150 C 2110.3333333333335 150, 2196.6666666666665 96, 2209 96 C 2217.777777777778 96, 2279.222222222222 100, 2288 100 C 2302.5555555555557 100, 2404.4444444444443 158, 2419 158 C 2427.1111111111113 158, 2483.8888888888887 90, 2492 90 C 2500.4444444444443 90, 2559.5555555555557 150, 2568 150 L 2640 126 L 2640 1344 Z"></path><path fill="#da8761" stroke="#da8761" d="M -80 1344 L -90 158 C -74.55555555555556 158, 33.55555555555556 129, 49 129 C 58.888888888888886 129, 128.11111111111111 190, 138 190 C 149.55555555555554 190, 230.44444444444446 183, 242 183 C 257 183, 362 190, 377 190 C 388.6666666666667 190, 470.3333333333333 181, 482 181 C 496.3333333333333 181, 596.6666666666666 117, 611 117 C 619.7777777777778 117, 681.2222222222222 197, 690 197 C 703.6666666666666 197, 799.3333333333334 200, 813 200 C 826.3333333333334 200, 919.6666666666666 203, 933 203 C 943.3333333333334 203, 1015.6666666666666 183, 1026 183 C 1040.888888888889 183, 1145.111111111111 192, 1160 192 C 1174.2222222222222 192, 1273.7777777777778 129, 1288 129 C 1300.4444444444443 129, 1387.5555555555557 133, 1400 133 C 1410.4444444444443 133, 1483.5555555555557 184, 1494 184 C 1506.7777777777778 184, 1596.2222222222222 201, 1609 201 C 1618.888888888889 201, 1688.111111111111 118, 1698 118 C 1708.4444444444443 118, 1781.5555555555557 131, 1792 131 C 1803.111111111111 131, 1880.888888888889 126, 1892 126 C 1906.6666666666667 126, 2009.3333333333333 132, 2024 132 C 2034.111111111111 132, 2104.8888888888887 113, 2115 113 C 2123.1111111111113 113, 2179.8888888888887 189, 2188 189 C 2201.8888888888887 189, 2299.1111111111113 201, 2313 201 C 2325.6666666666665 201, 2414.3333333333335 113, 2427 113 C 2436.777777777778 113, 2505.222222222222 133, 2515 133 C 2530 133, 2635 196, 2650 196 L 2640 158 L 2640 1344 Z"></path><path fill="#d78260" stroke="#d78260" d="M -80 1344 L -92 189 C -82.22222222222223 189, -13.777777777777779 160, -4 160 C 7 160, 84 215, 95 215 C 108.55555555555556 215, 203.44444444444446 216, 217 216 C 227.55555555555554 216, 301.44444444444446 150, 312 150 C 321.55555555555554 150, 388.44444444444446 148, 398 148 C 409.6666666666667 148, 491.3333333333333 147, 503 147 C 514.3333333333334 147, 593.6666666666666 225, 605 225 C 617.8888888888889 225, 708.1111111111111 153, 721 153 C 729 153, 785 164, 793 164 C 807.3333333333334 164, 907.6666666666666 234, 922 234 C 937 234, 1042 215, 1057 215 C 1071.2222222222222 215, 1170.7777777777778 214, 1185 214 C 1194.888888888889 214, 1264.111111111111 213, 1274 213 C 1283.2222222222222 213, 1347.7777777777778 222, 1357 222 C 1371 222, 1469 217, 1483 217 C 1493.7777777777778 217, 1569.2222222222222 144, 1580 144 C 1593.5555555555557 144, 1688.4444444444443 152, 1702 152 C 1715.888888888889 152, 1813.111111111111 221, 1827 221 C 1840 221, 1931 153, 1944 153 C 1959.111111111111 153, 2064.8888888888887 228, 2080 228 C 2093.8888888888887 228, 2191.1111111111113 214, 2205 214 C 2217.5555555555557 214, 2305.4444444444443 231, 2318 231 C 2331 231, 2422 224, 2435 224 C 2446.1111111111113 224, 2523.8888888888887 165, 2535 165 C 2548.3333333333335 165, 2641.6666666666665 219, 2655 219 L 2640 189 L 2640 1344 Z"></path><path fill="#d47c5f" stroke="#d47c5f" d="M -80 1344 L -94 221 C -86 221, -30 258, -22 258 C -12.777777777777779 258, 51.77777777777778 257, 61 257 C 69.22222222222223 257, 126.77777777777777 198, 135 198 C 144.44444444444446 198, 210.55555555555554 192, 220 192 C 232.22222222222223 192, 317.77777777777777 193, 330 193 C 340 193, 410 250, 420 250 C 429 250, 492 189, 501 189 C 509.1111111111111 189, 565.8888888888889 196, 574 196 C 587.5555555555555 196, 682.4444444444445 194, 696 194 C 705.6666666666666 194, 773.3333333333334 258, 783 258 C 798.2222222222222 258, 904.7777777777778 264, 920 264 C 934.3333333333334 264, 1034.6666666666667 251, 1049 251 C 1063.4444444444443 251, 1164.5555555555557 266, 1179 266 C 1192.111111111111 266, 1283.888888888889 189, 1297 189 C 1309.7777777777778 189, 1399.2222222222222 256, 1412 256 C 1425.111111111111 256, 1516.888888888889 186, 1530 186 C 1543.111111111111 186, 1634.888888888889 187, 1648 187 C 1663.4444444444443 187, 1771.5555555555557 251, 1787 251 C 1801.6666666666667 251, 1904.3333333333333 251, 1919 251 C 1932.3333333333333 251, 2025.6666666666667 265, 2039 265 C 2051.1111111111113 265, 2135.8888888888887 178, 2148 178 C 2159.5555555555557 178, 2240.4444444444443 265, 2252 265 C 2264.5555555555557 265, 2352.4444444444443 262, 2365 262 C 2376 262, 2453 264, 2464 264 C 2477.1111111111113 264, 2568.8888888888887 196, 2582 196 L 2640 221 L 2640 1344 Z"></path><path fill="#d1765d" stroke="#d1765d" d="M -80 1344 L -96 252 C -84.88888888888889 252, -7.111111111111111 216, 4 216 C 16.444444444444443 216, 103.55555555555556 207, 116 207 C 125.22222222222223 207, 189.77777777777777 282, 199 282 C 213.33333333333334 282, 313.6666666666667 228, 328 228 C 336.8888888888889 228, 399.1111111111111 276, 408 276 C 417.55555555555554 276, 484.44444444444446 213, 494 213 C 504.77777777777777 213, 580.2222222222222 293, 591 293 C 605.7777777777778 293, 709.2222222222222 287, 724 287 C 736 287, 820 226, 832 226 C 840.1111111111111 226, 896.8888888888889 281, 905 281 C 918.5555555555555 281, 1013.4444444444445 224, 1027 224 C 1039.4444444444443 224, 1126.5555555555557 276, 1139 276 C 1148.2222222222222 276, 1212.7777777777778 222, 1222 222 C 1230.6666666666667 222, 1291.3333333333333 282, 1300 282 C 1308.5555555555557 282, 1368.4444444444443 291, 1377 291 C 1391.4444444444443 291, 1492.5555555555557 224, 1507 224 C 1517.7777777777778 224, 1593.2222222222222 212, 1604 212 C 1619 212, 1724 210, 1739 210 C 1749.6666666666667 210, 1824.3333333333333 216, 1835 216 C 1842.888888888889 216, 1898.111111111111 229, 1906 229 C 1918.4444444444443 229, 2005.5555555555557 218, 2018 218 C 2026.5555555555557 218, 2086.4444444444443 220, 2095 220 C 2104.8888888888887 220, 2174.1111111111113 291, 2184 291 C 2195.8888888888887 291, 2279.1111111111113 288, 2291 288 C 2304.222222222222 288, 2396.777777777778 214, 2410 214 C 2421.3333333333335 214, 2500.6666666666665 295, 2512 295 C 2526.8888888888887 295, 2631.1111111111113 287, 2646 287 L 2640 252 L 2640 1344 Z"></path><path fill="#cd715d" stroke="#cd715d" d="M -80 1344 L -98 284 C -85.66666666666667 284, 0.6666666666666661 242, 13 242 C 24.666666666666664 242, 106.33333333333333 248, 118 248 C 130.22222222222223 248, 215.77777777777777 317, 228 317 C 237.33333333333334 317, 302.6666666666667 308, 312 308 C 321.55555555555554 308, 388.44444444444446 322, 398 322 C 408.8888888888889 322, 485.1111111111111 248, 496 248 C 511.22222222222223 248, 617.7777777777778 261, 633 261 C 645 261, 729 315, 741 315 C 753.7777777777778 315, 843.2222222222222 326, 856 326 C 866.4444444444445 326, 939.5555555555555 247, 950 247 C 960 247, 1030 326, 1040 326 C 1051 326, 1128 309, 1139 309 C 1151.111111111111 309, 1235.888888888889 239, 1248 239 C 1261.888888888889 239, 1359.111111111111 240, 1373 240 C 1381.2222222222222 240, 1438.7777777777778 326, 1447 326 C 1456.7777777777778 326, 1525.2222222222222 250, 1535 250 C 1542.7777777777778 250, 1597.2222222222222 245, 1605 245 C 1613.888888888889 245, 1676.111111111111 258, 1685 258 C 1696.3333333333333 258, 1775.6666666666667 239, 1787 239 C 1798 239, 1875 245, 1886 245 C 1899.4444444444443 245, 1993.5555555555557 315, 2007 315 C 2020.3333333333333 315, 2113.6666666666665 327, 2127 327 C 2134.8888888888887 327, 2190.1111111111113 319, 2198 319 C 2210.6666666666665 319, 2299.3333333333335 257, 2312 257 C 2322.3333333333335 257, 2394.6666666666665 308, 2405 308 C 2418.1111111111113 308, 2509.8888888888887 257, 2523 257 C 2532.1111111111113 257, 2595.8888888888887 239, 2605 239 L 2640 284 L 2640 1344 Z"></path><path fill="#ca6b5c" stroke="#ca6b5c" d="M -80 1344 L -100 316 C -89.33333333333333 316, -14.666666666666666 361, -4 361 C 7.333333333333334 361, 86.66666666666667 293, 98 293 C 107.11111111111111 293, 170.88888888888889 348, 180 348 C 191.88888888888889 348, 275.1111111111111 276, 287 276 C 295.55555555555554 276, 355.44444444444446 352, 364 352 C 377.77777777777777 352, 474.22222222222223 340, 488 340 C 502.6666666666667 340, 605.3333333333334 357, 620 357 C 633.1111111111111 357, 724.8888888888889 347, 738 347 C 748.4444444444445 347, 821.5555555555555 286, 832 286 C 847.4444444444445 286, 955.5555555555555 275, 971 275 C 982.4444444444445 275, 1062.5555555555557 280, 1074 280 C 1088.4444444444443 280, 1189.5555555555557 361, 1204 361 C 1216.5555555555557 361, 1304.4444444444443 284, 1317 284 C 1330.111111111111 284, 1421.888888888889 355, 1435 355 C 1446.3333333333333 355, 1525.6666666666667 282, 1537 282 C 1550 282, 1641 339, 1654 339 C 1667.7777777777778 339, 1764.2222222222222 286, 1778 286 C 1792.6666666666667 286, 1895.3333333333333 285, 1910 285 C 1919.888888888889 285, 1989.111111111111 279, 1999 279 C 2007.7777777777778 279, 2069.222222222222 357, 2078 357 C 2087.6666666666665 357, 2155.3333333333335 348, 2165 348 C 2178.6666666666665 348, 2274.3333333333335 287, 2288 287 C 2296.3333333333335 287, 2354.6666666666665 290, 2363 290 C 2372.3333333333335 290, 2437.6666666666665 356, 2447 356 C 2460.222222222222 356, 2552.777777777778 343, 2566 343 L 2640 316 L 2640 1344 Z"></path><path fill="#c6665b" stroke="#c6665b" d="M -80 1344 L -102 347 C -90 347, -6 374, 6 374 C 14.444444444444445 374, 73.55555555555556 315, 82 315 C 95.44444444444444 315, 189.55555555555554 321, 203 321 C 214.44444444444446 321, 294.55555555555554 310, 306 310 C 319 310, 410 315, 423 315 C 434 315, 511 317, 522 317 C 530.3333333333334 317, 588.6666666666666 376, 597 376 C 608 376, 685 376, 696 376 C 705.8888888888889 376, 775.1111111111111 307, 785 307 C 795.8888888888889 307, 872.1111111111111 319, 883 319 C 895.4444444444445 319, 982.5555555555555 307, 995 307 C 1004.7777777777778 307, 1073.2222222222222 305, 1083 305 C 1098.2222222222222 305, 1204.7777777777778 375, 1220 375 C 1234.2222222222222 375, 1333.7777777777778 389, 1348 389 C 1357.7777777777778 389, 1426.2222222222222 392, 1436 392 C 1445.3333333333333 392, 1510.6666666666667 306, 1520 306 C 1529.7777777777778 306, 1598.2222222222222 324, 1608 324 C 1619 324, 1696 374, 1707 374 C 1721 374, 1819 323, 1833 323 C 1841.2222222222222 323, 1898.7777777777778 316, 1907 316 C 1915.2222222222222 316, 1972.7777777777778 305, 1981 305 C 1995.4444444444443 305, 2096.5555555555557 313, 2111 313 C 2119 313, 2175 370, 2183 370 C 2195.222222222222 370, 2280.777777777778 391, 2293 391 C 2306.6666666666665 391, 2402.3333333333335 380, 2416 380 C 2429.222222222222 380, 2521.777777777778 305, 2535 305 C 2546.1111111111113 305, 2623.8888888888887 375, 2635 375 L 2640 347 L 2640 1344 Z"></path><path fill="#c2605a" stroke="#c2605a" d="M -80 1344 L -104 379 C -93.88888888888889 379, -23.11111111111111 420, -13 420 C -4 420, 59 342, 68 342 C 79.44444444444444 342, 159.55555555555554 422, 171 422 C 179.55555555555554 422, 239.44444444444446 337, 248 337 C 259.1111111111111 337, 336.8888888888889 424, 348 424 C 361.8888888888889 424, 459.1111111111111 334, 473 334 C 481.6666666666667 334, 542.3333333333334 339, 551 339 C 558.8888888888889 339, 614.1111111111111 411, 622 411 C 637.2222222222222 411, 743.7777777777778 354, 759 354 C 768.5555555555555 354, 835.4444444444445 420, 845 420 C 854.3333333333334 420, 919.6666666666666 406, 929 406 C 942.6666666666666 406, 1038.3333333333333 405, 1052 405 C 1067.3333333333333 405, 1174.6666666666667 349, 1190 349 C 1205.2222222222222 349, 1311.7777777777778 354, 1327 354 C 1341.4444444444443 354, 1442.5555555555557 412, 1457 412 C 1467.111111111111 412, 1537.888888888889 406, 1548 406 C 1560.5555555555557 406, 1648.4444444444443 410, 1661 410 C 1676.2222222222222 410, 1782.7777777777778 410, 1798 410 C 1812.3333333333333 410, 1912.6666666666667 419, 1927 419 C 1942.2222222222222 419, 2048.777777777778 339, 2064 339 C 2071.8888888888887 339, 2127.1111111111113 418, 2135 418 C 2146.777777777778 418, 2229.222222222222 354, 2241 354 C 2251.222222222222 354, 2322.777777777778 424, 2333 424 C 2344.8888888888887 424, 2428.1111111111113 346, 2440 346 C 2450.5555555555557 346, 2524.4444444444443 408, 2535 408 C 2544 408, 2607 335, 2616 335 L 2640 379 L 2640 1344 Z"></path><path fill="#be5b5a" stroke="#be5b5a" d="M -80 1344 L -106 410 C -93.11111111111111 410, -2.8888888888888893 447, 10 447 C 24 447, 122 366, 136 366 C 144.88888888888889 366, 207.11111111111111 387, 216 387 C 228.88888888888889 387, 319.1111111111111 448, 332 448 C 345.3333333333333 448, 438.6666666666667 386, 452 386 C 462.6666666666667 386, 537.3333333333334 437, 548 437 C 559.1111111111111 437, 636.8888888888889 381, 648 381 C 656.7777777777778 381, 718.2222222222222 369, 727 369 C 735.8888888888889 369, 798.1111111111111 452, 807 452 C 816.4444444444445 452, 882.5555555555555 371, 892 371 C 904.5555555555555 371, 992.4444444444445 450, 1005 450 C 1014.3333333333334 450, 1079.6666666666667 439, 1089 439 C 1099.2222222222222 439, 1170.7777777777778 374, 1181 374 C 1189.3333333333333 374, 1247.6666666666667 365, 1256 365 C 1265.2222222222222 365, 1329.7777777777778 436, 1339 436 C 1352.3333333333333 436, 1445.6666666666667 437, 1459 437 C 1471.5555555555557 437, 1559.4444444444443 452, 1572 452 C 1580.4444444444443 452, 1639.5555555555557 377, 1648 377 C 1659.7777777777778 377, 1742.2222222222222 442, 1754 442 C 1767.4444444444443 442, 1861.5555555555557 447, 1875 447 C 1887.111111111111 447, 1971.888888888889 440, 1984 440 C 1995.2222222222222 440, 2073.777777777778 375, 2085 375 C 2092.777777777778 375, 2147.222222222222 451, 2155 451 C 2164.777777777778 451, 2233.222222222222 448, 2243 448 C 2251.4444444444443 448, 2310.5555555555557 442, 2319 442 C 2327.6666666666665 442, 2388.3333333333335 382, 2397 382 C 2411.8888888888887 382, 2516.1111111111113 449, 2531 449 C 2541.8888888888887 449, 2618.1111111111113 366, 2629 366 L 2640 410 L 2640 1344 Z"></path><path fill="#ba5659" stroke="#ba5659" d="M -80 1344 L -108 442 C -99.55555555555556 442, -40.44444444444444 465, -32 465 C -21.22222222222222 465, 54.22222222222222 401, 65 401 C 74.22222222222223 401, 138.77777777777777 405, 148 405 C 159.22222222222223 405, 237.77777777777777 475, 249 475 C 258.77777777777777 475, 327.22222222222223 475, 337 475 C 352.3333333333333 475, 459.6666666666667 398, 475 398 C 488.3333333333333 398, 581.6666666666666 414, 595 414 C 605.1111111111111 414, 675.8888888888889 411, 686 411 C 697.3333333333334 411, 776.6666666666666 418, 788 418 C 799.7777777777778 418, 882.2222222222222 466, 894 466 C 909 466, 1014 474, 1029 474 C 1038.4444444444443 474, 1104.5555555555557 479, 1114 479 C 1123 479, 1186 487, 1195 487 C 1209 487, 1307 403, 1321 403 C 1331.2222222222222 403, 1402.7777777777778 487, 1413 487 C 1427.7777777777778 487, 1531.2222222222222 485, 1546 485 C 1555.111111111111 485, 1618.888888888889 486, 1628 486 C 1638.888888888889 486, 1715.111111111111 468, 1726 468 C 1737.7777777777778 468, 1820.2222222222222 417, 1832 417 C 1843.4444444444443 417, 1923.5555555555557 399, 1935 399 C 1946 399, 2023 483, 2034 483 C 2046.2222222222222 483, 2131.777777777778 416, 2144 416 C 2158.3333333333335 416, 2258.6666666666665 419, 2273 419 C 2288.3333333333335 419, 2395.6666666666665 406, 2411 406 C 2419.4444444444443 406, 2478.5555555555557 475, 2487 475 C 2495.3333333333335 475, 2553.6666666666665 484, 2562 484 L 2640 442 L 2640 1344 Z"></path><path fill="#b55059" stroke="#b55059" d="M -80 1344 L -110 474 C -98.88888888888889 474, -21.11111111111111 508, -10 508 C 1.1111111111111107 508, 78.88888888888889 512, 90 512 C 101.88888888888889 512, 185.11111111111111 431, 197 431 C 208.44444444444446 431, 288.55555555555554 507, 300 507 C 315.44444444444446 507, 423.55555555555554 508, 439 508 C 451.8888888888889 508, 542.1111111111111 499, 555 499 C 562.7777777777778 499, 617.2222222222222 500, 625 500 C 635.6666666666666 500, 710.3333333333334 513, 721 513 C 731.3333333333334 513, 803.6666666666666 497, 814 497 C 825.1111111111111 497, 902.8888888888889 429, 914 429 C 929.4444444444445 429, 1037.5555555555557 513, 1053 513 C 1067.7777777777778 513, 1171.2222222222222 436, 1186 436 C 1193.888888888889 436, 1249.111111111111 500, 1257 500 C 1266.5555555555557 500, 1333.4444444444443 442, 1343 442 C 1353.7777777777778 442, 1429.2222222222222 431, 1440 431 C 1452.3333333333333 431, 1538.6666666666667 434, 1551 434 C 1559.888888888889 434, 1622.111111111111 503, 1631 503 C 1646.2222222222222 503, 1752.7777777777778 433, 1768 433 C 1778.7777777777778 433, 1854.2222222222222 501, 1865 501 C 1878.4444444444443 501, 1972.5555555555557 513, 1986 513 C 1995.3333333333333 513, 2060.6666666666665 503, 2070 503 C 2079.8888888888887 503, 2149.1111111111113 514, 2159 514 C 2171.4444444444443 514, 2258.5555555555557 447, 2271 447 C 2282.777777777778 447, 2365.222222222222 506, 2377 506 C 2391.6666666666665 506, 2494.3333333333335 508, 2509 508 C 2517.8888888888887 508, 2580.1111111111113 431, 2589 431 L 2640 474 L 2640 1344 Z"></path><path fill="#b04b59" stroke="#b04b59" d="M -80 1344 L -112 505 C -101.66666666666667 505, -29.333333333333336 466, -19 466 C -9.333333333333334 466, 58.333333333333336 466, 68 466 C 79.88888888888889 466, 163.11111111111111 544, 175 544 C 188.55555555555554 544, 283.44444444444446 550, 297 550 C 310 550, 401 481, 414 481 C 424.77777777777777 481, 500.22222222222223 482, 511 482 C 524.4444444444445 482, 618.5555555555555 528, 632 528 C 640.6666666666666 528, 701.3333333333334 467, 710 467 C 721.7777777777778 467, 804.2222222222222 469, 816 469 C 824.8888888888889 469, 887.1111111111111 540, 896 540 C 910.8888888888889 540, 1015.1111111111111 540, 1030 540 C 1042.5555555555557 540, 1130.4444444444443 477, 1143 477 C 1152 477, 1215 532, 1224 532 C 1235.7777777777778 532, 1318.2222222222222 470, 1330 470 C 1341.7777777777778 470, 1424.2222222222222 462, 1436 462 C 1447.5555555555557 462, 1528.4444444444443 463, 1540 463 C 1549.6666666666667 463, 1617.3333333333333 474, 1627 474 C 1637.111111111111 474, 1707.888888888889 464, 1718 464 C 1731.2222222222222 464, 1823.7777777777778 546, 1837 546 C 1851.7777777777778 546, 1955.2222222222222 474, 1970 474 C 1980.6666666666667 474, 2055.3333333333335 542, 2066 542 C 2079 542, 2170 530, 2183 530 C 2193.8888888888887 530, 2270.1111111111113 544, 2281 544 C 2291.6666666666665 544, 2366.3333333333335 528, 2377 528 C 2390.5555555555557 528, 2485.4444444444443 464, 2499 464 C 2510.8888888888887 464, 2594.1111111111113 531, 2606 531 L 2640 505 L 2640 1344 Z"></path><path fill="#ac4658" stroke="#ac4658" d="M -80 1344 L -114 537 C -104.22222222222223 537, -35.77777777777778 578, -26 578 C -15.555555555555555 578, 57.55555555555556 581, 68 581 C 82.33333333333333 581, 182.66666666666666 495, 197 495 C 204.77777777777777 495, 259.22222222222223 506, 267 506 C 275.77777777777777 506, 337.22222222222223 571, 346 571 C 361.1111111111111 571, 466.8888888888889 572, 482 572 C 493.3333333333333 572, 572.6666666666666 569, 584 569 C 596.3333333333334 569, 682.6666666666666 505, 695 505 C 707.6666666666666 505, 796.3333333333334 575, 809 575 C 819 575, 889 565, 899 565 C 912.2222222222222 565, 1004.7777777777778 565, 1018 565 C 1027.888888888889 565, 1097.111111111111 570, 1107 570 C 1119.888888888889 570, 1210.111111111111 512, 1223 512 C 1232.888888888889 512, 1302.111111111111 563, 1312 563 C 1322.4444444444443 563, 1395.5555555555557 495, 1406 495 C 1419 495, 1510 571, 1523 571 C 1538.111111111111 571, 1643.888888888889 576, 1659 576 C 1667.3333333333333 576, 1725.6666666666667 503, 1734 503 C 1742.111111111111 503, 1798.888888888889 505, 1807 505 C 1816.3333333333333 505, 1881.6666666666667 563, 1891 563 C 1902.888888888889 563, 1986.111111111111 499, 1998 499 C 2011.4444444444443 499, 2105.5555555555557 513, 2119 513 C 2132.4444444444443 513, 2226.5555555555557 575, 2240 575 C 2251.6666666666665 575, 2333.3333333333335 561, 2345 561 C 2356.222222222222 561, 2434.777777777778 508, 2446 508 C 2457.3333333333335 508, 2536.6666666666665 505, 2548 505 C 2556.1111111111113 505, 2612.8888888888887 579, 2621 579 L 2640 537 L 2640 1344 Z"></path><path fill="#a74158" stroke="#a74158" d="M -80 1344 L -116 568 C -101.77777777777777 568, -2.2222222222222214 545, 12 545 C 27.22222222222222 545, 133.77777777777777 609, 149 609 C 159.55555555555554 609, 233.44444444444446 545, 244 545 C 254.55555555555554 545, 328.44444444444446 611, 339 611 C 354.3333333333333 611, 461.6666666666667 611, 477 611 C 488.3333333333333 611, 567.6666666666666 542, 579 542 C 589.2222222222222 542, 660.7777777777778 523, 671 523 C 679.8888888888889 523, 742.1111111111111 597, 751 597 C 761.1111111111111 597, 831.8888888888889 602, 842 602 C 851 602, 914 527, 923 527 C 937.8888888888889 527, 1042.111111111111 598, 1057 598 C 1066.5555555555557 598, 1133.4444444444443 534, 1143 534 C 1153.111111111111 534, 1223.888888888889 543, 1234 543 C 1244 543, 1314 608, 1324 608 C 1338.2222222222222 608, 1437.7777777777778 534, 1452 534 C 1461.6666666666667 534, 1529.3333333333333 542, 1539 542 C 1548.888888888889 542, 1618.111111111111 542, 1628 542 C 1637.111111111111 542, 1700.888888888889 603, 1710 603 C 1722.888888888889 603, 1813.111111111111 603, 1826 603 C 1839 603, 1930 609, 1943 609 C 1956.7777777777778 609, 2053.222222222222 523, 2067 523 C 2076.3333333333335 523, 2141.6666666666665 610, 2151 610 C 2159.8888888888887 610, 2222.1111111111113 612, 2231 612 C 2241.1111111111113 612, 2311.8888888888887 604, 2322 604 C 2336.5555555555557 604, 2438.4444444444443 610, 2453 610 C 2462.5555555555557 610, 2529.4444444444443 539, 2539 539 C 2554 539, 2659 528, 2674 528 L 2640 568 L 2640 1344 Z"></path><path fill="#a23d58" stroke="#a23d58" d="M -80 1344 L -118 600 C -106.22222222222223 600, -23.77777777777778 563, -12 563 C 1 563, 92 566, 105 566 C 114.55555555555556 566, 181.44444444444446 555, 191 555 C 198.88888888888889 555, 254.11111111111111 564, 262 564 C 276.44444444444446 564, 377.55555555555554 635, 392 635 C 401.8888888888889 635, 471.1111111111111 639, 481 639 C 490.77777777777777 639, 559.2222222222222 564, 569 564 C 579.5555555555555 564, 653.4444444444445 563, 664 563 C 677.3333333333334 563, 770.6666666666666 561, 784 561 C 796 561, 880 640, 892 640 C 906.1111111111111 640, 1004.8888888888889 638, 1019 638 C 1031 638, 1115 561, 1127 561 C 1140.2222222222222 561, 1232.7777777777778 625, 1246 625 C 1259.3333333333333 625, 1352.6666666666667 631, 1366 631 C 1378.7777777777778 631, 1468.2222222222222 633, 1481 633 C 1490.6666666666667 633, 1558.3333333333333 560, 1568 560 C 1581.7777777777778 560, 1678.2222222222222 634, 1692 634 C 1703.3333333333333 634, 1782.6666666666667 631, 1794 631 C 1807.7777777777778 631, 1904.2222222222222 635, 1918 635 C 1933.4444444444443 635, 2041.5555555555557 642, 2057 642 C 2071.3333333333335 642, 2171.6666666666665 571, 2186 571 C 2196.777777777778 571, 2272.222222222222 628, 2283 628 C 2292.222222222222 628, 2356.777777777778 638, 2366 638 C 2378.5555555555557 638, 2466.4444444444443 625, 2479 625 C 2491.5555555555557 625, 2579.4444444444443 643, 2592 643 L 2640 600 L 2640 1344 Z"></path><path fill="#9c3857" stroke="#9c3857" d="M -80 1344 L -120 632 C -111.11111111111111 632, -48.888888888888886 667, -40 667 C -25 667, 80 673, 95 673 C 103.22222222222223 673, 160.77777777777777 608, 169 608 C 184.11111111111111 608, 289.8888888888889 589, 305 589 C 319.44444444444446 589, 420.55555555555554 601, 435 601 C 447.8888888888889 601, 538.1111111111111 590, 551 590 C 561.7777777777778 590, 637.2222222222222 661, 648 661 C 657.4444444444445 661, 723.5555555555555 676, 733 676 C 743.1111111111111 676, 813.8888888888889 677, 824 677 C 838.5555555555555 677, 940.4444444444445 657, 955 657 C 964.5555555555555 657, 1031.4444444444443 587, 1041 587 C 1050 587, 1113 668, 1122 668 C 1131.4444444444443 668, 1197.5555555555557 655, 1207 655 C 1215.6666666666667 655, 1276.3333333333333 656, 1285 656 C 1299.6666666666667 656, 1402.3333333333333 609, 1417 609 C 1430.7777777777778 609, 1527.2222222222222 597, 1541 597 C 1550.5555555555557 597, 1617.4444444444443 609, 1627 609 C 1635.4444444444443 609, 1694.5555555555557 670, 1703 670 C 1718.4444444444443 670, 1826.5555555555557 661, 1842 661 C 1857.3333333333333 661, 1964.6666666666667 606, 1980 606 C 1989.3333333333333 606, 2054.6666666666665 664, 2064 664 C 2075.8888888888887 664, 2159.1111111111113 668, 2171 668 C 2179.222222222222 668, 2236.777777777778 609, 2245 609 C 2259.777777777778 609, 2363.222222222222 590, 2378 590 C 2389.777777777778 590, 2472.222222222222 594, 2484 594 C 2494.1111111111113 594, 2564.8888888888887 606, 2575 606 L 2640 632 L 2640 1344 Z"></path><path fill="#973457" stroke="#973457" d="M -80 1344 L -122 663 C -107.77777777777777 663, -8.222222222222221 620, 6 620 C 21.22222222222222 620, 127.77777777777777 627, 143 627 C 158 627, 263 699, 278 699 C 289.44444444444446 699, 369.55555555555554 625, 381 625 C 396 625, 501 695, 516 695 C 531 695, 636 708, 651 708 C 664 708, 755 693, 768 693 C 775.7777777777778 693, 830.2222222222222 631, 838 631 C 850.8888888888889 631, 941.1111111111111 637, 954 637 C 962.3333333333334 637, 1020.6666666666666 627, 1029 627 C 1041.7777777777778 627, 1131.2222222222222 700, 1144 700 C 1155 700, 1232 625, 1243 625 C 1253.5555555555557 625, 1327.4444444444443 630, 1338 630 C 1353.4444444444443 630, 1461.5555555555557 635, 1477 635 C 1488.111111111111 635, 1565.888888888889 706, 1577 706 C 1585.3333333333333 706, 1643.6666666666667 623, 1652 623 C 1666.2222222222222 623, 1765.7777777777778 694, 1780 694 C 1792.4444444444443 694, 1879.5555555555557 633, 1892 633 C 1904.3333333333333 633, 1990.6666666666667 628, 2003 628 C 2016.111111111111 628, 2107.8888888888887 691, 2121 691 C 2129.5555555555557 691, 2189.4444444444443 693, 2198 693 C 2209.3333333333335 693, 2288.6666666666665 619, 2300 619 C 2313.4444444444443 619, 2407.5555555555557 618, 2421 618 C 2433.5555555555557 618, 2521.4444444444443 689, 2534 689 C 2544.8888888888887 689, 2621.1111111111113 628, 2632 628 L 2640 663 L 2640 1344 Z"></path><path fill="#912f57" stroke="#912f57" d="M -80 1344 L -124 695 C -113.44444444444444 695, -39.55555555555556 653, -29 653 C -13.555555555555555 653, 94.55555555555556 654, 110 654 C 121.11111111111111 654, 198.88888888888889 651, 210 651 C 223.55555555555554 651, 318.44444444444446 736, 332 736 C 340.1111111111111 736, 396.8888888888889 728, 405 728 C 419.55555555555554 728, 521.4444444444445 659, 536 659 C 549.2222222222222 659, 641.7777777777778 718, 655 718 C 668.6666666666666 718, 764.3333333333334 672, 778 672 C 787.5555555555555 672, 854.4444444444445 652, 864 652 C 875.6666666666666 652, 957.3333333333334 733, 969 733 C 983.1111111111111 733, 1081.888888888889 667, 1096 667 C 1108.2222222222222 667, 1193.7777777777778 663, 1206 663 C 1221.111111111111 663, 1326.888888888889 657, 1342 657 C 1354.7777777777778 657, 1444.2222222222222 665, 1457 665 C 1466.111111111111 665, 1529.888888888889 718, 1539 718 C 1550.4444444444443 718, 1630.5555555555557 653, 1642 653 C 1652.5555555555557 653, 1726.4444444444443 720, 1737 720 C 1746.2222222222222 720, 1810.7777777777778 724, 1820 724 C 1834.111111111111 724, 1932.888888888889 659, 1947 659 C 1959.2222222222222 659, 2044.7777777777778 654, 2057 654 C 2070 654, 2161 737, 2174 737 C 2185.8888888888887 737, 2269.1111111111113 672, 2281 672 C 2292.1111111111113 672, 2369.8888888888887 735, 2381 735 C 2395.222222222222 735, 2494.777777777778 655, 2509 655 C 2521.5555555555557 655, 2609.4444444444443 672, 2622 672 L 2640 695 L 2640 1344 Z"></path><path fill="#8c2b56" stroke="#8c2b56" d="M -80 1344 L -126 726 C -114.44444444444444 726, -33.55555555555556 700, -22 700 C -10.777777777777779 700, 67.77777777777777 682, 79 682 C 92.33333333333333 682, 185.66666666666666 751, 199 751 C 213.33333333333334 751, 313.6666666666667 765, 328 765 C 339.22222222222223 765, 417.77777777777777 700, 429 700 C 438.1111111111111 700, 501.8888888888889 699, 511 699 C 526.3333333333334 699, 633.6666666666666 755, 649 755 C 662.4444444444445 755, 756.5555555555555 698, 770 698 C 778.5555555555555 698, 838.4444444444445 749, 847 749 C 861.4444444444445 749, 962.5555555555555 767, 977 767 C 988.6666666666666 767, 1070.3333333333333 768, 1082 768 C 1094.888888888889 768, 1185.111111111111 753, 1198 753 C 1212 753, 1310 700, 1324 700 C 1335.2222222222222 700, 1413.7777777777778 683, 1425 683 C 1438.111111111111 683, 1529.888888888889 701, 1543 701 C 1552 701, 1615 767, 1624 767 C 1632.888888888889 767, 1695.111111111111 753, 1704 753 C 1719.111111111111 753, 1824.888888888889 691, 1840 691 C 1848.888888888889 691, 1911.111111111111 764, 1920 764 C 1929.111111111111 764, 1992.888888888889 696, 2002 696 C 2017.3333333333333 696, 2124.6666666666665 681, 2140 681 C 2147.777777777778 681, 2202.222222222222 693, 2210 693 C 2224.1111111111113 693, 2322.8888888888887 752, 2337 752 C 2349.3333333333335 752, 2435.6666666666665 749, 2448 749 C 2463.3333333333335 749, 2570.6666666666665 703, 2586 703 L 2640 726 L 2640 1344 Z"></path><path fill="#862756" stroke="#862756" d="M -80 1344 L -128 758 C -118.11111111111111 758, -48.888888888888886 782, -39 782 C -30.333333333333336 782, 30.333333333333336 787, 39 787 C 54.22222222222222 787, 160.77777777777777 723, 176 723 C 190.22222222222223 723, 289.77777777777777 733, 304 733 C 318.77777777777777 733, 422.22222222222223 718, 437 718 C 451.6666666666667 718, 554.3333333333334 784, 569 784 C 583.2222222222222 784, 682.7777777777778 784, 697 784 C 708 784, 785 781, 796 781 C 810.6666666666666 781, 913.3333333333334 715, 928 715 C 936.2222222222222 715, 993.7777777777778 795, 1002 795 C 1011.6666666666666 795, 1079.3333333333333 733, 1089 733 C 1103.7777777777778 733, 1207.2222222222222 798, 1222 798 C 1230.5555555555557 798, 1290.4444444444443 723, 1299 723 C 1313.7777777777778 723, 1417.2222222222222 802, 1432 802 C 1446.6666666666667 802, 1549.3333333333333 733, 1564 733 C 1577.6666666666667 733, 1673.3333333333333 724, 1687 724 C 1694.7777777777778 724, 1749.2222222222222 800, 1757 800 C 1765 800, 1821 800, 1829 800 C 1839.111111111111 800, 1909.888888888889 791, 1920 791 C 1932 791, 2016 798, 2028 798 C 2036.6666666666667 798, 2097.3333333333335 730, 2106 730 C 2114.5555555555557 730, 2174.4444444444443 726, 2183 726 C 2192.777777777778 726, 2261.222222222222 730, 2271 730 C 2278.8888888888887 730, 2334.1111111111113 795, 2342 795 C 2351.6666666666665 795, 2419.3333333333335 713, 2429 713 C 2441.4444444444443 713, 2528.5555555555557 795, 2541 795 C 2551.3333333333335 795, 2623.6666666666665 790, 2634 790 L 2640 758 L 2640 1344 Z"></path><path fill="#802355" stroke="#802355" d="M -80 1344 L -130 790 C -119.77777777777777 790, -48.22222222222222 764, -38 764 C -25.22222222222222 764, 64.22222222222223 821, 77 821 C 88 821, 165 765, 176 765 C 185.55555555555554 765, 252.44444444444446 829, 262 829 C 277 829, 382 757, 397 757 C 407.44444444444446 757, 480.55555555555554 758, 491 758 C 502.8888888888889 758, 586.1111111111111 752, 598 752 C 608.8888888888889 752, 685.1111111111111 757, 696 757 C 704.2222222222222 757, 761.7777777777778 759, 770 759 C 783.4444444444445 759, 877.5555555555555 758, 891 758 C 903 758, 987 824, 999 824 C 1014.2222222222222 824, 1120.7777777777778 831, 1136 831 C 1145.888888888889 831, 1215.111111111111 822, 1225 822 C 1236.3333333333333 822, 1315.6666666666667 815, 1327 815 C 1337.5555555555557 815, 1411.4444444444443 813, 1422 813 C 1436.5555555555557 813, 1538.4444444444443 759, 1553 759 C 1562.7777777777778 759, 1631.2222222222222 829, 1641 829 C 1650.888888888889 829, 1720.111111111111 816, 1730 816 C 1737.7777777777778 816, 1792.2222222222222 828, 1800 828 C 1807.7777777777778 828, 1862.2222222222222 765, 1870 765 C 1881.4444444444443 765, 1961.5555555555557 749, 1973 749 C 1986.4444444444443 749, 2080.5555555555557 755, 2094 755 C 2108 755, 2206 754, 2220 754 C 2235.1111111111113 754, 2340.8888888888887 752, 2356 752 C 2366.4444444444443 752, 2439.5555555555557 833, 2450 833 C 2457.8888888888887 833, 2513.1111111111113 762, 2521 762 C 2534.5555555555557 762, 2629.4444444444443 745, 2643 745 L 2640 790 L 2640 1344 Z"></path><path fill="#791f55" stroke="#791f55" d="M -80 1344 L -132 821 C -123.44444444444444 821, -63.55555555555556 863, -55 863 C -43.666666666666664 863, 35.666666666666664 794, 47 794 C 58 794, 135 789, 146 789 C 158.44444444444446 789, 245.55555555555554 790, 258 790 C 272.77777777777777 790, 376.22222222222223 790, 391 790 C 399.55555555555554 790, 459.44444444444446 779, 468 779 C 476.8888888888889 779, 539.1111111111111 845, 548 845 C 556.4444444444445 845, 615.5555555555555 863, 624 863 C 637.2222222222222 863, 729.7777777777778 857, 743 857 C 757.4444444444445 857, 858.5555555555555 780, 873 780 C 884.1111111111111 780, 961.8888888888889 848, 973 848 C 982.7777777777778 848, 1051.2222222222222 777, 1061 777 C 1075.2222222222222 777, 1174.7777777777778 858, 1189 858 C 1198.5555555555557 858, 1265.4444444444443 792, 1275 792 C 1283.4444444444443 792, 1342.5555555555557 783, 1351 783 C 1359 783, 1415 794, 1423 794 C 1435 794, 1519 859, 1531 859 C 1543.3333333333333 859, 1629.6666666666667 780, 1642 780 C 1653.5555555555557 780, 1734.4444444444443 854, 1746 854 C 1758.4444444444443 854, 1845.5555555555557 778, 1858 778 C 1870.5555555555557 778, 1958.4444444444443 783, 1971 783 C 1984.4444444444443 783, 2078.5555555555557 798, 2092 798 C 2105.3333333333335 798, 2198.6666666666665 781, 2212 781 C 2223.777777777778 781, 2306.222222222222 788, 2318 788 C 2326 788, 2382 782, 2390 782 C 2398.6666666666665 782, 2459.3333333333335 787, 2468 787 C 2480.777777777778 787, 2570.222222222222 780, 2583 780 L 2640 821 L 2640 1344 Z"></path><path fill="#731c54" stroke="#731c54" d="M -80 1344 L -134 853 C -119.88888888888889 853, -21.11111111111111 828, -7 828 C 3.2222222222222214 828, 74.77777777777777 896, 85 896 C 97.88888888888889 896, 188.11111111111111 886, 201 886 C 212.11111111111111 886, 289.8888888888889 892, 301 892 C 316.22222222222223 892, 422.77777777777777 893, 438 893 C 447.3333333333333 893, 512.6666666666666 881, 522 881 C 533.5555555555555 881, 614.4444444444445 891, 626 891 C 637.6666666666666 891, 719.3333333333334 817, 731 817 C 741.6666666666666 817, 816.3333333333334 896, 827 896 C 841.7777777777778 896, 945.2222222222222 826, 960 826 C 968 826, 1024 823, 1032 823 C 1041.888888888889 823, 1111.111111111111 882, 1121 882 C 1130 882, 1193 897, 1202 897 C 1216.7777777777778 897, 1320.2222222222222 876, 1335 876 C 1347.7777777777778 876, 1437.2222222222222 828, 1450 828 C 1460 828, 1530 826, 1540 826 C 1554.5555555555557 826, 1656.4444444444443 828, 1671 828 C 1682.6666666666667 828, 1764.3333333333333 880, 1776 880 C 1784.888888888889 880, 1847.111111111111 898, 1856 898 C 1863.888888888889 898, 1919.111111111111 876, 1927 876 C 1935.2222222222222 876, 1992.7777777777778 821, 2001 821 C 2011 821, 2081 896, 2091 896 C 2099.1111111111113 896, 2155.8888888888887 818, 2164 818 C 2177.777777777778 818, 2274.222222222222 885, 2288 885 C 2300.4444444444443 885, 2387.5555555555557 825, 2400 825 C 2407.8888888888887 825, 2463.1111111111113 813, 2471 813 C 2484.777777777778 813, 2581.222222222222 895, 2595 895 L 2640 853 L 2640 1344 Z"></path><path fill="#6d1954" stroke="#6d1954" d="M -80 1344 L -136 884 C -127.11111111111111 884, -64.88888888888889 860, -56 860 C -40.77777777777778 860, 65.77777777777777 858, 81 858 C 89.77777777777777 858, 151.22222222222223 859, 160 859 C 174.33333333333334 859, 274.6666666666667 918, 289 918 C 300.44444444444446 918, 380.55555555555554 859, 392 859 C 406 859, 504 844, 518 844 C 530.5555555555555 844, 618.4444444444445 850, 631 850 C 644 850, 735 861, 748 861 C 759.6666666666666 861, 841.3333333333334 919, 853 919 C 863.8888888888889 919, 940.1111111111111 929, 951 929 C 964.6666666666666 929, 1060.3333333333333 860, 1074 860 C 1083 860, 1146 851, 1155 851 C 1166.4444444444443 851, 1246.5555555555557 927, 1258 927 C 1270.2222222222222 927, 1355.7777777777778 921, 1368 921 C 1377.6666666666667 921, 1445.3333333333333 846, 1455 846 C 1466.2222222222222 846, 1544.7777777777778 854, 1556 854 C 1570.6666666666667 854, 1673.3333333333333 841, 1688 841 C 1697.6666666666667 841, 1765.3333333333333 855, 1775 855 C 1783.4444444444443 855, 1842.5555555555557 908, 1851 908 C 1861 908, 1931 844, 1941 844 C 1950.111111111111 844, 2013.888888888889 920, 2023 920 C 2031.3333333333333 920, 2089.6666666666665 842, 2098 842 C 2111.4444444444443 842, 2205.5555555555557 843, 2219 843 C 2232.8888888888887 843, 2330.1111111111113 914, 2344 914 C 2353.5555555555557 914, 2420.4444444444443 842, 2430 842 C 2445.3333333333335 842, 2552.6666666666665 918, 2568 918 L 2640 884 L 2640 1344 Z"></path><path fill="#661653" stroke="#661653" d="M -80 1344 L -138 916 C -124.22222222222223 916, -27.77777777777778 944, -14 944 C 0.8888888888888893 944, 105.11111111111111 888, 120 888 C 131.22222222222223 888, 209.77777777777777 880, 221 880 C 236.11111111111111 880, 341.8888888888889 951, 357 951 C 365.22222222222223 951, 422.77777777777777 877, 431 877 C 440.3333333333333 877, 505.6666666666667 883, 515 883 C 524.5555555555555 883, 591.4444444444445 944, 601 944 C 614.2222222222222 944, 706.7777777777778 893, 720 893 C 728.7777777777778 893, 790.2222222222222 946, 799 946 C 813.5555555555555 946, 915.4444444444445 892, 930 892 C 942.2222222222222 892, 1027.7777777777778 872, 1040 872 C 1050.2222222222222 872, 1121.7777777777778 875, 1132 875 C 1143.5555555555557 875, 1224.4444444444443 882, 1236 882 C 1246.888888888889 882, 1323.111111111111 884, 1334 884 C 1343.888888888889 884, 1413.111111111111 941, 1423 941 C 1435.6666666666667 941, 1524.3333333333333 872, 1537 872 C 1546.4444444444443 872, 1612.5555555555557 888, 1622 888 C 1631.2222222222222 888, 1695.7777777777778 879, 1705 879 C 1716.4444444444443 879, 1796.5555555555557 951, 1808 951 C 1821.5555555555557 951, 1916.4444444444443 945, 1930 945 C 1942.888888888889 945, 2033.111111111111 961, 2046 961 C 2055.777777777778 961, 2124.222222222222 892, 2134 892 C 2145.222222222222 892, 2223.777777777778 890, 2235 890 C 2243.222222222222 890, 2300.777777777778 952, 2309 952 C 2316.8888888888887 952, 2372.1111111111113 952, 2380 952 C 2393.1111111111113 952, 2484.8888888888887 943, 2498 943 C 2511.777777777778 943, 2608.222222222222 883, 2622 883 L 2640 916 L 2640 1344 Z"></path><path fill="#5f1352" stroke="#5f1352" d="M -80 1344 L -140 948 C -132 948, -76 988, -68 988 C -58.44444444444444 988, 8.444444444444445 971, 18 971 C 28.11111111111111 971, 98.88888888888889 911, 109 911 C 120.88888888888889 911, 204.11111111111111 906, 216 906 C 226.77777777777777 906, 302.22222222222223 917, 313 917 C 328.3333333333333 917, 435.6666666666667 975, 451 975 C 459.22222222222223 975, 516.7777777777778 972, 525 972 C 535.2222222222222 972, 606.7777777777778 923, 617 923 C 628.6666666666666 923, 710.3333333333334 913, 722 913 C 736.7777777777778 913, 840.2222222222222 921, 855 921 C 867.5555555555555 921, 955.4444444444445 925, 968 925 C 977.4444444444445 925, 1043.5555555555557 913, 1053 913 C 1064.888888888889 913, 1148.111111111111 910, 1160 910 C 1171.3333333333333 910, 1250.6666666666667 973, 1262 973 C 1272.3333333333333 973, 1344.6666666666667 981, 1355 981 C 1365.6666666666667 981, 1440.3333333333333 920, 1451 920 C 1461.2222222222222 920, 1532.7777777777778 915, 1543 915 C 1552.6666666666667 915, 1620.3333333333333 980, 1630 980 C 1641.2222222222222 980, 1719.7777777777778 915, 1731 915 C 1744.7777777777778 915, 1841.2222222222222 980, 1855 980 C 1869 980, 1967 985, 1981 985 C 1990.888888888889 985, 2060.1111111111113 975, 2070 975 C 2081.1111111111113 975, 2158.8888888888887 990, 2170 990 C 2183.1111111111113 990, 2274.8888888888887 988, 2288 988 C 2300.8888888888887 988, 2391.1111111111113 922, 2404 922 C 2417.777777777778 922, 2514.222222222222 983, 2528 983 C 2537.777777777778 983, 2606.222222222222 924, 2616 924 L 2640 948 L 2640 1344 Z"></path><path fill="#581051" stroke="#581051" d="M -80 1344 L -142 979 C -131.66666666666666 979, -59.333333333333336 1021, -49 1021 C -36.111111111111114 1021, 54.111111111111114 945, 67 945 C 79.88888888888889 945, 170.11111111111111 1018, 183 1018 C 193 1018, 263 941, 273 941 C 283.1111111111111 941, 353.8888888888889 1023, 364 1023 C 374.8888888888889 1023, 451.1111111111111 939, 462 939 C 474 939, 558 1005, 570 1005 C 581.5555555555555 1005, 662.4444444444445 934, 674 934 C 687 934, 778 956, 791 956 C 805.8888888888889 956, 910.1111111111111 953, 925 953 C 938.3333333333334 953, 1031.6666666666667 1002, 1045 1002 C 1053.111111111111 1002, 1109.888888888889 938, 1118 938 C 1132.4444444444443 938, 1233.5555555555557 938, 1248 938 C 1263.4444444444443 938, 1371.5555555555557 1020, 1387 1020 C 1400.5555555555557 1020, 1495.4444444444443 950, 1509 950 C 1520 950, 1597 937, 1608 937 C 1621.4444444444443 937, 1715.5555555555557 1022, 1729 1022 C 1742.4444444444443 1022, 1836.5555555555557 1017, 1850 1017 C 1864.2222222222222 1017, 1963.7777777777778 943, 1978 943 C 1986.3333333333333 943, 2044.6666666666667 934, 2053 934 C 2063.1111111111113 934, 2133.8888888888887 943, 2144 943 C 2153.777777777778 943, 2222.222222222222 1018, 2232 1018 C 2239.8888888888887 1018, 2295.1111111111113 953, 2303 953 C 2313.5555555555557 953, 2387.4444444444443 949, 2398 949 C 2409.6666666666665 949, 2491.3333333333335 1020, 2503 1020 C 2517.3333333333335 1020, 2617.6666666666665 1018, 2632 1018 L 2640 979 L 2640 1344 Z"></path><path fill="#510e50" stroke="#510e50" d="M -80 1344 L -144 1011 C -133.55555555555554 1011, -60.44444444444444 978, -50 978 C -36.55555555555556 978, 57.55555555555556 972, 71 972 C 81.77777777777777 972, 157.22222222222223 1045, 168 1045 C 181.66666666666666 1045, 277.3333333333333 976, 291 976 C 302.77777777777777 976, 385.22222222222223 1044, 397 1044 C 405.77777777777777 1044, 467.22222222222223 972, 476 972 C 488.77777777777777 972, 578.2222222222222 979, 591 979 C 604.3333333333334 979, 697.6666666666666 1037, 711 1037 C 723.1111111111111 1037, 807.8888888888889 1048, 820 1048 C 833.3333333333334 1048, 926.6666666666666 1043, 940 1043 C 951.7777777777778 1043, 1034.2222222222222 987, 1046 987 C 1057.6666666666667 987, 1139.3333333333333 1037, 1151 1037 C 1162.111111111111 1037, 1239.888888888889 1054, 1251 1054 C 1263.7777777777778 1054, 1353.2222222222222 1048, 1366 1048 C 1381.4444444444443 1048, 1489.5555555555557 1055, 1505 1055 C 1518.3333333333333 1055, 1611.6666666666667 1053, 1625 1053 C 1638.888888888889 1053, 1736.111111111111 971, 1750 971 C 1760 971, 1830 985, 1840 985 C 1848.6666666666667 985, 1909.3333333333333 988, 1918 988 C 1930.5555555555557 988, 2018.4444444444443 967, 2031 967 C 2045 967, 2143 1051, 2157 1051 C 2167.1111111111113 1051, 2237.8888888888887 1037, 2248 1037 C 2260.4444444444443 1037, 2347.5555555555557 1047, 2360 1047 C 2370.777777777778 1047, 2446.222222222222 1042, 2457 1042 C 2469.8888888888887 1042, 2560.1111111111113 1035, 2573 1035 L 2640 1011 L 2640 1344 Z"></path><path fill="#4a0c4f" stroke="#4a0c4f" d="M -80 1344 L -146 1042 C -134.22222222222223 1042, -51.77777777777778 1074, -40 1074 C -31.666666666666664 1074, 26.666666666666664 997, 35 997 C 49.666666666666664 997, 152.33333333333334 1001, 167 1001 C 178.55555555555554 1001, 259.44444444444446 1016, 271 1016 C 285.22222222222223 1016, 384.77777777777777 1014, 399 1014 C 412 1014, 503 1019, 516 1019 C 525.4444444444445 1019, 591.5555555555555 1083, 601 1083 C 613.4444444444445 1083, 700.5555555555555 1080, 713 1080 C 726.3333333333334 1080, 819.6666666666666 1076, 833 1076 C 847.4444444444445 1076, 948.5555555555555 1001, 963 1001 C 977.7777777777778 1001, 1081.2222222222222 1074, 1096 1074 C 1110 1074, 1208 1013, 1222 1013 C 1231.2222222222222 1013, 1295.7777777777778 1083, 1305 1083 C 1316.7777777777778 1083, 1399.2222222222222 1004, 1411 1004 C 1422 1004, 1499 1002, 1510 1002 C 1521.2222222222222 1002, 1599.7777777777778 1009, 1611 1009 C 1625.6666666666667 1009, 1728.3333333333333 1068, 1743 1068 C 1752.888888888889 1068, 1822.111111111111 1015, 1832 1015 C 1841.7777777777778 1015, 1910.2222222222222 1012, 1920 1012 C 1928.7777777777778 1012, 1990.2222222222222 1074, 1999 1074 C 2013.888888888889 1074, 2118.1111111111113 1074, 2133 1074 C 2143.1111111111113 1074, 2213.8888888888887 1085, 2224 1085 C 2232.222222222222 1085, 2289.777777777778 1078, 2298 1078 C 2313.3333333333335 1078, 2420.6666666666665 1082, 2436 1082 C 2446 1082, 2516 1087, 2526 1087 C 2537.8888888888887 1087, 2621.1111111111113 1014, 2633 1014 L 2640 1042 L 2640 1344 Z"></path><path fill="#430b4e" stroke="#430b4e" d="M -80 1344 L -148 1074 C -139 1074, -76 1109, -67 1109 C -56.55555555555556 1109, 16.555555555555557 1046, 27 1046 C 35 1046, 91 1047, 99 1047 C 107 1047, 163 1106, 171 1106 C 184.11111111111111 1106, 275.8888888888889 1098, 289 1098 C 302.77777777777777 1098, 399.22222222222223 1043, 413 1043 C 426.44444444444446 1043, 520.5555555555555 1117, 534 1117 C 544 1117, 614 1113, 624 1113 C 639 1113, 744 1041, 759 1041 C 770.5555555555555 1041, 851.4444444444445 1051, 863 1051 C 872.6666666666666 1051, 940.3333333333334 1050, 950 1050 C 958.4444444444445 1050, 1017.5555555555555 1105, 1026 1105 C 1039.2222222222222 1105, 1131.7777777777778 1097, 1145 1097 C 1159.111111111111 1097, 1257.888888888889 1036, 1272 1036 C 1283.2222222222222 1036, 1361.7777777777778 1098, 1373 1098 C 1386.5555555555557 1098, 1481.4444444444443 1103, 1495 1103 C 1505.3333333333333 1103, 1577.6666666666667 1048, 1588 1048 C 1598.3333333333333 1048, 1670.6666666666667 1099, 1681 1099 C 1696.3333333333333 1099, 1803.6666666666667 1115, 1819 1115 C 1834.3333333333333 1115, 1941.6666666666667 1038, 1957 1038 C 1969.7777777777778 1038, 2059.222222222222 1032, 2072 1032 C 2085.777777777778 1032, 2182.222222222222 1099, 2196 1099 C 2208.3333333333335 1099, 2294.6666666666665 1099, 2307 1099 C 2321.1111111111113 1099, 2419.8888888888887 1097, 2434 1097 C 2447.5555555555557 1097, 2542.4444444444443 1116, 2556 1116 C 2569 1116, 2660 1114, 2673 1114 L 2640 1074 L 2640 1344 Z"></path><path fill="#3b094d" stroke="#3b094d" d="M -80 1344 L -150 1106 C -139.77777777777777 1106, -68.22222222222223 1063, -58 1063 C -47.22222222222222 1063, 28.22222222222222 1070, 39 1070 C 52.111111111111114 1070, 143.88888888888889 1149, 157 1149 C 169.22222222222223 1149, 254.77777777777777 1063, 267 1063 C 279.55555555555554 1063, 367.44444444444446 1135, 380 1135 C 390.8888888888889 1135, 467.1111111111111 1079, 478 1079 C 489.1111111111111 1079, 566.8888888888889 1141, 578 1141 C 592.4444444444445 1141, 693.5555555555555 1147, 708 1147 C 723.3333333333334 1147, 830.6666666666666 1065, 846 1065 C 859.1111111111111 1065, 950.8888888888889 1139, 964 1139 C 974.4444444444445 1139, 1047.5555555555557 1144, 1058 1144 C 1066.5555555555557 1144, 1126.4444444444443 1074, 1135 1074 C 1147.7777777777778 1074, 1237.2222222222222 1148, 1250 1148 C 1263.7777777777778 1148, 1360.2222222222222 1072, 1374 1072 C 1388.111111111111 1072, 1486.888888888889 1139, 1501 1139 C 1515.5555555555557 1139, 1617.4444444444443 1064, 1632 1064 C 1644.4444444444443 1064, 1731.5555555555557 1131, 1744 1131 C 1752.111111111111 1131, 1808.888888888889 1081, 1817 1081 C 1829.111111111111 1081, 1913.888888888889 1132, 1926 1132 C 1938.7777777777778 1132, 2028.2222222222222 1144, 2041 1144 C 2053.3333333333335 1144, 2139.6666666666665 1150, 2152 1150 C 2162.777777777778 1150, 2238.222222222222 1134, 2249 1134 C 2260.1111111111113 1134, 2337.8888888888887 1150, 2349 1150 C 2361.3333333333335 1150, 2447.6666666666665 1137, 2460 1137 C 2471 1137, 2548 1131, 2559 1131 C 2573.6666666666665 1131, 2676.3333333333335 1067, 2691 1067 L 2640 1106 L 2640 1344 Z"></path><path fill="#33084b" stroke="#33084b" d="M -80 1344 L -152 1137 C -139.44444444444446 1137, -51.55555555555556 1097, -39 1097 C -29.444444444444443 1097, 37.44444444444444 1112, 47 1112 C 61.333333333333336 1112, 161.66666666666666 1164, 176 1164 C 191.44444444444446 1164, 299.55555555555554 1109, 315 1109 C 326.22222222222223 1109, 404.77777777777777 1173, 416 1173 C 424 1173, 480 1100, 488 1100 C 495.8888888888889 1100, 551.1111111111111 1110, 559 1110 C 568.5555555555555 1110, 635.4444444444445 1163, 645 1163 C 654.1111111111111 1163, 717.8888888888889 1163, 727 1163 C 734.8888888888889 1163, 790.1111111111111 1101, 798 1101 C 806.1111111111111 1101, 862.8888888888889 1178, 871 1178 C 879.3333333333334 1178, 937.6666666666666 1170, 946 1170 C 955.4444444444445 1170, 1021.5555555555555 1105, 1031 1105 C 1045.888888888889 1105, 1150.111111111111 1106, 1165 1106 C 1179.5555555555557 1106, 1281.4444444444443 1107, 1296 1107 C 1306.111111111111 1107, 1376.888888888889 1171, 1387 1171 C 1402.111111111111 1171, 1507.888888888889 1103, 1523 1103 C 1533.5555555555557 1103, 1607.4444444444443 1162, 1618 1162 C 1628.5555555555557 1162, 1702.4444444444443 1105, 1713 1105 C 1721.3333333333333 1105, 1779.6666666666667 1096, 1788 1096 C 1795.888888888889 1096, 1851.111111111111 1099, 1859 1099 C 1870.3333333333333 1099, 1949.6666666666667 1106, 1961 1106 C 1970.3333333333333 1106, 2035.6666666666667 1162, 2045 1162 C 2056 1162, 2133 1167, 2144 1167 C 2155.6666666666665 1167, 2237.3333333333335 1169, 2249 1169 C 2256.8888888888887 1169, 2312.1111111111113 1104, 2320 1104 C 2328.6666666666665 1104, 2389.3333333333335 1182, 2398 1182 C 2405.8888888888887 1182, 2461.1111111111113 1171, 2469 1171 C 2480.6666666666665 1171, 2562.3333333333335 1175, 2574 1175 L 2640 1137 L 2640 1344 Z"></path><path fill="#2a084a" stroke="#2a084a" d="M -80 1344 L -154 1169 C -141.33333333333334 1169, -52.666666666666664 1205, -40 1205 C -26.77777777777778 1205, 65.77777777777777 1212, 79 1212 C 92 1212, 183 1212, 196 1212 C 209.88888888888889 1212, 307.1111111111111 1207, 321 1207 C 335.8888888888889 1207, 440.1111111111111 1142, 455 1142 C 467.1111111111111 1142, 551.8888888888889 1214, 564 1214 C 573.6666666666666 1214, 641.3333333333334 1133, 651 1133 C 660 1133, 723 1213, 732 1213 C 745.2222222222222 1213, 837.7777777777778 1125, 851 1125 C 865.2222222222222 1125, 964.7777777777778 1135, 979 1135 C 993.3333333333334 1135, 1093.6666666666667 1138, 1108 1138 C 1120.3333333333333 1138, 1206.6666666666667 1145, 1219 1145 C 1233.111111111111 1145, 1331.888888888889 1135, 1346 1135 C 1356.4444444444443 1135, 1429.5555555555557 1144, 1440 1144 C 1449.6666666666667 1144, 1517.3333333333333 1130, 1527 1130 C 1536.3333333333333 1130, 1601.6666666666667 1207, 1611 1207 C 1621.3333333333333 1207, 1693.6666666666667 1203, 1704 1203 C 1716 1203, 1800 1197, 1812 1197 C 1826.6666666666667 1197, 1929.3333333333333 1128, 1944 1128 C 1953 1128, 2016 1131, 2025 1131 C 2037.4444444444443 1131, 2124.5555555555557 1211, 2137 1211 C 2145.8888888888887 1211, 2208.1111111111113 1208, 2217 1208 C 2225.3333333333335 1208, 2283.6666666666665 1200, 2292 1200 C 2303.8888888888887 1200, 2387.1111111111113 1131, 2399 1131 C 2414.3333333333335 1131, 2521.6666666666665 1202, 2537 1202 C 2546.5555555555557 1202, 2613.4444444444443 1144, 2623 1144 L 2640 1169 L 2640 1344 Z"></path><path fill="#210748" stroke="#210748" d="M -80 1344 L -156 1200 C -142.44444444444446 1200, -47.55555555555556 1158, -34 1158 C -23.88888888888889 1158, 46.888888888888886 1169, 57 1169 C 65 1169, 121 1227, 129 1227 C 138.66666666666666 1227, 206.33333333333334 1177, 216 1177 C 229 1177, 320 1239, 333 1239 C 346 1239, 437 1159, 450 1159 C 458.55555555555554 1159, 518.4444444444445 1239, 527 1239 C 542.3333333333334 1239, 649.6666666666666 1235, 665 1235 C 676.6666666666666 1235, 758.3333333333334 1173, 770 1173 C 781 1173, 858 1230, 869 1230 C 882.2222222222222 1230, 974.7777777777778 1161, 988 1161 C 998.7777777777778 1161, 1074.2222222222222 1165, 1085 1165 C 1098.888888888889 1165, 1196.111111111111 1177, 1210 1177 C 1223.6666666666667 1177, 1319.3333333333333 1169, 1333 1169 C 1346.111111111111 1169, 1437.888888888889 1234, 1451 1234 C 1459.111111111111 1234, 1515.888888888889 1168, 1524 1168 C 1532.5555555555557 1168, 1592.4444444444443 1166, 1601 1166 C 1612.3333333333333 1166, 1691.6666666666667 1157, 1703 1157 C 1716.5555555555557 1157, 1811.4444444444443 1230, 1825 1230 C 1833.6666666666667 1230, 1894.3333333333333 1171, 1903 1171 C 1912.111111111111 1171, 1975.888888888889 1164, 1985 1164 C 1997.7777777777778 1164, 2087.222222222222 1238, 2100 1238 C 2112.4444444444443 1238, 2199.5555555555557 1243, 2212 1243 C 2221.8888888888887 1243, 2291.1111111111113 1235, 2301 1235 C 2314.8888888888887 1235, 2412.1111111111113 1176, 2426 1176 C 2434.222222222222 1176, 2491.777777777778 1163, 2500 1163 C 2513.222222222222 1163, 2605.777777777778 1162, 2619 1162 L 2640 1200 L 2640 1344 Z"></path><path fill="#160646" stroke="#160646" d="M -80 1344 L -158 1232 C -147.44444444444446 1232, -73.55555555555556 1203, -63 1203 C -54 1203, 9 1203, 18 1203 C 31.77777777777778 1203, 128.22222222222223 1258, 142 1258 C 151.44444444444446 1258, 217.55555555555554 1264, 227 1264 C 235.88888888888889 1264, 298.1111111111111 1268, 307 1268 C 317 1268, 387 1203, 397 1203 C 405.55555555555554 1203, 465.44444444444446 1274, 474 1274 C 483.55555555555554 1274, 550.4444444444445 1206, 560 1206 C 574.2222222222222 1206, 673.7777777777778 1187, 688 1187 C 699.2222222222222 1187, 777.7777777777778 1200, 789 1200 C 800.7777777777778 1200, 883.2222222222222 1207, 895 1207 C 905.5555555555555 1207, 979.4444444444445 1204, 990 1204 C 1002.1111111111111 1204, 1086.888888888889 1194, 1099 1194 C 1114.4444444444443 1194, 1222.5555555555557 1260, 1238 1260 C 1249.111111111111 1260, 1326.888888888889 1199, 1338 1199 C 1351.5555555555557 1199, 1446.4444444444443 1265, 1460 1265 C 1472 1265, 1556 1277, 1568 1277 C 1582.5555555555557 1277, 1684.4444444444443 1260, 1699 1260 C 1709 1260, 1779 1258, 1789 1258 C 1803.888888888889 1258, 1908.111111111111 1199, 1923 1199 C 1934.4444444444443 1199, 2014.5555555555557 1188, 2026 1188 C 2036.111111111111 1188, 2106.8888888888887 1188, 2117 1188 C 2131.3333333333335 1188, 2231.6666666666665 1256, 2246 1256 C 2256.4444444444443 1256, 2329.5555555555557 1198, 2340 1198 C 2348.1111111111113 1198, 2404.8888888888887 1256, 2413 1256 C 2425.777777777778 1256, 2515.222222222222 1192, 2528 1192 C 2542.3333333333335 1192, 2642.6666666666665 1204, 2657 1204 L 2640 1232 L 2640 1344 Z"></path><path fill="#090444" stroke="#090444" d="M -80 1344 L -160 1264 C -148.88888888888889 1264, -71.11111111111111 1298, -60 1298 C -44.77777777777778 1298, 61.77777777777778 1237, 77 1237 C 91.55555555555556 1237, 193.44444444444446 1219, 208 1219 C 217.88888888888889 1219, 287.1111111111111 1294, 297 1294 C 310.8888888888889 1294, 408.1111111111111 1221, 422 1221 C 435.8888888888889 1221, 533.1111111111111 1219, 547 1219 C 555.3333333333334 1219, 613.6666666666666 1238, 622 1238 C 632.7777777777778 1238, 708.2222222222222 1225, 719 1225 C 734.4444444444445 1225, 842.5555555555555 1302, 858 1302 C 867 1302, 930 1288, 939 1288 C 947.6666666666666 1288, 1008.3333333333334 1227, 1017 1227 C 1029.4444444444443 1227, 1116.5555555555557 1295, 1129 1295 C 1142 1295, 1233 1236, 1246 1236 C 1259.6666666666667 1236, 1355.3333333333333 1288, 1369 1288 C 1378.888888888889 1288, 1448.111111111111 1224, 1458 1224 C 1468.3333333333333 1224, 1540.6666666666667 1232, 1551 1232 C 1561.7777777777778 1232, 1637.2222222222222 1289, 1648 1289 C 1658.3333333333333 1289, 1730.6666666666667 1307, 1741 1307 C 1751.111111111111 1307, 1821.888888888889 1240, 1832 1240 C 1846.6666666666667 1240, 1949.3333333333333 1298, 1964 1298 C 1976.888888888889 1298, 2067.1111111111113 1241, 2080 1241 C 2094.1111111111113 1241, 2192.8888888888887 1300, 2207 1300 C 2216.777777777778 1300, 2285.222222222222 1299, 2295 1299 C 2305.6666666666665 1299, 2380.3333333333335 1227, 2391 1227 C 2402.1111111111113 1227, 2479.8888888888887 1292, 2491 1292 C 2499.3333333333335 1292, 2557.6666666666665 1235, 2566 1235 L 2640 1264 L 2640 1344 Z"></path></svg>