<svg id="svg" class="path" style="background-color: rgb(143, 255, 152);" title="background" version="1.1" xmlns="http://www.w3.org/2000/svg"><path fill="#87fe9c" stroke="#87fe9c" d="M -608 1872 L -608 0 C -574.6666666666666 0, -341.3333333333333 -200, -308 -200 C -274.6666666666667 -200, -41.333333333333336 200, -8 200 C 25.333333333333336 200, 258.6666666666667 -200, 292 -200 C 325.3333333333333 -200, 558.6666666666666 200, 592 200 C 625.3333333333334 200, 858.6666666666666 -200, 892 -200 C 925.3333333333334 -200, 1158.6666666666667 200, 1192 200 C 1225.3333333333333 200, 1458.6666666666667 -200, 1492 -200 C 1525.3333333333333 -200, 1758.6666666666667 200, 1792 200 C 1825.3333333333333 200, 2058.6666666666665 -200, 2092 -200 C 2125.3333333333335 -200, 2358.6666666666665 200, 2392 200 C 2425.3333333333335 200, 2658.6666666666665 -200, 2692 -200 L 3168 0 L 3168 1872 Z"></path><path fill="#7ffda0" stroke="#7ffda0" d="M -608 1872 L -589 39 C -555.6666666666666 39, -322.3333333333333 -161, -289 -161 C -255.66666666666666 -161, -22.333333333333336 239, 11 239 C 44.333333333333336 239, 277.6666666666667 -161, 311 -161 C 344.3333333333333 -161, 577.6666666666666 239, 611 239 C 644.3333333333334 239, 877.6666666666666 -161, 911 -161 C 944.3333333333334 -161, 1177.6666666666667 239, 1211 239 C 1244.3333333333333 239, 1477.6666666666667 -161, 1511 -161 C 1544.3333333333333 -161, 1777.6666666666667 239, 1811 239 C 1844.3333333333333 239, 2077.6666666666665 -161, 2111 -161 C 2144.3333333333335 -161, 2377.6666666666665 239, 2411 239 C 2444.3333333333335 239, 2677.6666666666665 -161, 2711 -161 L 3168 39 L 3168 1872 Z"></path><path fill="#77fba5" stroke="#77fba5" d="M -608 1872 L -570 79 C -536.6666666666666 79, -303.3333333333333 -121, -270 -121 C -236.66666666666666 -121, -3.3333333333333357 279, 30 279 C 63.333333333333336 279, 296.6666666666667 -121, 330 -121 C 363.3333333333333 -121, 596.6666666666666 279, 630 279 C 663.3333333333334 279, 896.6666666666666 -121, 930 -121 C 963.3333333333334 -121, 1196.6666666666667 279, 1230 279 C 1263.3333333333333 279, 1496.6666666666667 -121, 1530 -121 C 1563.3333333333333 -121, 1796.6666666666667 279, 1830 279 C 1863.3333333333333 279, 2096.6666666666665 -121, 2130 -121 C 2163.3333333333335 -121, 2396.6666666666665 279, 2430 279 C 2463.3333333333335 279, 2696.6666666666665 -121, 2730 -121 L 3168 79 L 3168 1872 Z"></path><path fill="#6efaa9" stroke="#6efaa9" d="M -608 1872 L -551 118 C -517.6666666666666 118, -284.3333333333333 -82, -251 -82 C -217.66666666666666 -82, 15.666666666666664 318, 49 318 C 82.33333333333334 318, 315.6666666666667 -82, 349 -82 C 382.3333333333333 -82, 615.6666666666666 318, 649 318 C 682.3333333333334 318, 915.6666666666666 -82, 949 -82 C 982.3333333333334 -82, 1215.6666666666667 318, 1249 318 C 1282.3333333333333 318, 1515.6666666666667 -82, 1549 -82 C 1582.3333333333333 -82, 1815.6666666666667 318, 1849 318 C 1882.3333333333333 318, 2115.6666666666665 -82, 2149 -82 C 2182.3333333333335 -82, 2415.6666666666665 318, 2449 318 C 2482.3333333333335 318, 2715.6666666666665 -82, 2749 -82 L 3168 118 L 3168 1872 Z"></path><path fill="#66f9ad" stroke="#66f9ad" d="M -608 1872 L -532 158 C -498.6666666666667 158, -265.3333333333333 -42, -232 -42 C -198.66666666666666 -42, 34.666666666666664 358, 68 358 C 101.33333333333334 358, 334.6666666666667 -42, 368 -42 C 401.3333333333333 -42, 634.6666666666666 358, 668 358 C 701.3333333333334 358, 934.6666666666666 -42, 968 -42 C 1001.3333333333334 -42, 1234.6666666666667 358, 1268 358 C 1301.3333333333333 358, 1534.6666666666667 -42, 1568 -42 C 1601.3333333333333 -42, 1834.6666666666667 358, 1868 358 C 1901.3333333333333 358, 2134.6666666666665 -42, 2168 -42 C 2201.3333333333335 -42, 2434.6666666666665 358, 2468 358 C 2501.3333333333335 358, 2734.6666666666665 -42, 2768 -42 L 3168 158 L 3168 1872 Z"></path><path fill="#5df7b1" stroke="#5df7b1" d="M -608 1872 L -513 197 C -479.6666666666667 197, -246.33333333333334 -3, -213 -3 C -179.66666666666666 -3, 53.666666666666664 397, 87 397 C 120.33333333333334 397, 353.6666666666667 -3, 387 -3 C 420.3333333333333 -3, 653.6666666666666 397, 687 397 C 720.3333333333334 397, 953.6666666666666 -3, 987 -3 C 1020.3333333333334 -3, 1253.6666666666667 397, 1287 397 C 1320.3333333333333 397, 1553.6666666666667 -3, 1587 -3 C 1620.3333333333333 -3, 1853.6666666666667 397, 1887 397 C 1920.3333333333333 397, 2153.6666666666665 -3, 2187 -3 C 2220.3333333333335 -3, 2453.6666666666665 397, 2487 397 C 2520.3333333333335 397, 2753.6666666666665 -3, 2787 -3 L 3168 197 L 3168 1872 Z"></path><path fill="#54f6b5" stroke="#54f6b5" d="M -608 1872 L -494 237 C -460.6666666666667 237, -227.33333333333334 37, -194 37 C -160.66666666666666 37, 72.66666666666666 437, 106 437 C 139.33333333333334 437, 372.6666666666667 37, 406 37 C 439.3333333333333 37, 672.6666666666666 437, 706 437 C 739.3333333333334 437, 972.6666666666666 37, 1006 37 C 1039.3333333333333 37, 1272.6666666666667 437, 1306 437 C 1339.3333333333333 437, 1572.6666666666667 37, 1606 37 C 1639.3333333333333 37, 1872.6666666666667 437, 1906 437 C 1939.3333333333333 437, 2172.6666666666665 37, 2206 37 C 2239.3333333333335 37, 2472.6666666666665 437, 2506 437 C 2539.3333333333335 437, 2772.6666666666665 37, 2806 37 L 3168 237 L 3168 1872 Z"></path><path fill="#4af4b9" stroke="#4af4b9" d="M -608 1872 L -475 276 C -441.6666666666667 276, -208.33333333333334 76, -175 76 C -141.66666666666666 76, 91.66666666666666 476, 125 476 C 158.33333333333334 476, 391.6666666666667 76, 425 76 C 458.3333333333333 76, 691.6666666666666 476, 725 476 C 758.3333333333334 476, 991.6666666666666 76, 1025 76 C 1058.3333333333333 76, 1291.6666666666667 476, 1325 476 C 1358.3333333333333 476, 1591.6666666666667 76, 1625 76 C 1658.3333333333333 76, 1891.6666666666667 476, 1925 476 C 1958.3333333333333 476, 2191.6666666666665 76, 2225 76 C 2258.3333333333335 76, 2491.6666666666665 476, 2525 476 C 2558.3333333333335 476, 2791.6666666666665 76, 2825 76 L 3168 276 L 3168 1872 Z"></path><path fill="#40f3bd" stroke="#40f3bd" d="M -608 1872 L -456 316 C -422.6666666666667 316, -189.33333333333334 116, -156 116 C -122.66666666666666 116, 110.66666666666666 516, 144 516 C 177.33333333333334 516, 410.6666666666667 116, 444 116 C 477.3333333333333 116, 710.6666666666666 516, 744 516 C 777.3333333333334 516, 1010.6666666666666 116, 1044 116 C 1077.3333333333333 116, 1310.6666666666667 516, 1344 516 C 1377.3333333333333 516, 1610.6666666666667 116, 1644 116 C 1677.3333333333333 116, 1910.6666666666667 516, 1944 516 C 1977.3333333333333 516, 2210.6666666666665 116, 2244 116 C 2277.3333333333335 116, 2510.6666666666665 516, 2544 516 C 2577.3333333333335 516, 2810.6666666666665 116, 2844 116 L 3168 316 L 3168 1872 Z"></path><path fill="#35f1c0" stroke="#35f1c0" d="M -608 1872 L -437 355 C -403.6666666666667 355, -170.33333333333334 155, -137 155 C -103.66666666666666 155, 129.66666666666666 555, 163 555 C 196.33333333333334 555, 429.6666666666667 155, 463 155 C 496.3333333333333 155, 729.6666666666666 555, 763 555 C 796.3333333333334 555, 1029.6666666666667 155, 1063 155 C 1096.3333333333333 155, 1329.6666666666667 555, 1363 555 C 1396.3333333333333 555, 1629.6666666666667 155, 1663 155 C 1696.3333333333333 155, 1929.6666666666667 555, 1963 555 C 1996.3333333333333 555, 2229.6666666666665 155, 2263 155 C 2296.3333333333335 155, 2529.6666666666665 555, 2563 555 L 3168 355 L 3168 1872 Z"></path><path fill="#27efc4" stroke="#27efc4" d="M -608 1872 L -418 395 C -384.6666666666667 395, -151.33333333333334 195, -118 195 C -84.66666666666666 195, 148.66666666666666 595, 182 595 C 215.33333333333334 595, 448.6666666666667 195, 482 195 C 515.3333333333334 195, 748.6666666666666 595, 782 595 C 815.3333333333334 595, 1048.6666666666667 195, 1082 195 C 1115.3333333333333 195, 1348.6666666666667 595, 1382 595 C 1415.3333333333333 595, 1648.6666666666667 195, 1682 195 C 1715.3333333333333 195, 1948.6666666666667 595, 1982 595 C 2015.3333333333333 595, 2248.6666666666665 195, 2282 195 C 2315.3333333333335 195, 2548.6666666666665 595, 2582 595 L 3168 395 L 3168 1872 Z"></path><path fill="#15eec7" stroke="#15eec7" d="M -608 1872 L -399 434 C -365.6666666666667 434, -132.33333333333334 234, -99 234 C -65.66666666666666 234, 167.66666666666666 634, 201 634 C 234.33333333333334 634, 467.6666666666667 234, 501 234 C 534.3333333333334 234, 767.6666666666666 634, 801 634 C 834.3333333333334 634, 1067.6666666666667 234, 1101 234 C 1134.3333333333333 234, 1367.6666666666667 634, 1401 634 C 1434.3333333333333 634, 1667.6666666666667 234, 1701 234 C 1734.3333333333333 234, 1967.6666666666667 634, 2001 634 C 2034.3333333333333 634, 2267.6666666666665 234, 2301 234 C 2334.3333333333335 234, 2567.6666666666665 634, 2601 634 L 3168 434 L 3168 1872 Z"></path><path fill="#00eccb" stroke="#00eccb" d="M -608 1872 L -380 474 C -346.6666666666667 474, -113.33333333333334 274, -80 274 C -46.666666666666664 274, 186.66666666666666 674, 220 674 C 253.33333333333334 674, 486.6666666666667 274, 520 274 C 553.3333333333334 274, 786.6666666666666 674, 820 674 C 853.3333333333334 674, 1086.6666666666667 274, 1120 274 C 1153.3333333333333 274, 1386.6666666666667 674, 1420 674 C 1453.3333333333333 674, 1686.6666666666667 274, 1720 274 C 1753.3333333333333 274, 1986.6666666666667 674, 2020 674 C 2053.3333333333335 674, 2286.6666666666665 274, 2320 274 C 2353.3333333333335 274, 2586.6666666666665 674, 2620 674 L 3168 474 L 3168 1872 Z"></path><path fill="#00eace" stroke="#00eace" d="M -608 1872 L -361 513 C -327.6666666666667 513, -94.33333333333334 313, -61 313 C -27.666666666666664 313, 205.66666666666666 713, 239 713 C 272.3333333333333 713, 505.6666666666667 313, 539 313 C 572.3333333333334 313, 805.6666666666666 713, 839 713 C 872.3333333333334 713, 1105.6666666666667 313, 1139 313 C 1172.3333333333333 313, 1405.6666666666667 713, 1439 713 C 1472.3333333333333 713, 1705.6666666666667 313, 1739 313 C 1772.3333333333333 313, 2005.6666666666667 713, 2039 713 C 2072.3333333333335 713, 2305.6666666666665 313, 2339 313 C 2372.3333333333335 313, 2605.6666666666665 713, 2639 713 L 3168 513 L 3168 1872 Z"></path><path fill="#00e8d1" stroke="#00e8d1" d="M -608 1872 L -342 553 C -308.6666666666667 553, -75.33333333333334 353, -42 353 C -8.666666666666664 353, 224.66666666666666 753, 258 753 C 291.3333333333333 753, 524.6666666666666 353, 558 353 C 591.3333333333334 353, 824.6666666666666 753, 858 753 C 891.3333333333334 753, 1124.6666666666667 353, 1158 353 C 1191.3333333333333 353, 1424.6666666666667 753, 1458 753 C 1491.3333333333333 753, 1724.6666666666667 353, 1758 353 C 1791.3333333333333 353, 2024.6666666666667 753, 2058 753 C 2091.3333333333335 753, 2324.6666666666665 353, 2358 353 C 2391.3333333333335 353, 2624.6666666666665 753, 2658 753 L 3168 553 L 3168 1872 Z"></path><path fill="#00e6d3" stroke="#00e6d3" d="M -608 1872 L -323 592 C -289.6666666666667 592, -56.333333333333336 392, -23 392 C 10.333333333333336 392, 243.66666666666666 792, 277 792 C 310.3333333333333 792, 543.6666666666666 392, 577 392 C 610.3333333333334 392, 843.6666666666666 792, 877 792 C 910.3333333333334 792, 1143.6666666666667 392, 1177 392 C 1210.3333333333333 392, 1443.6666666666667 792, 1477 792 C 1510.3333333333333 792, 1743.6666666666667 392, 1777 392 C 1810.3333333333333 392, 2043.6666666666667 792, 2077 792 C 2110.3333333333335 792, 2343.6666666666665 392, 2377 392 C 2410.3333333333335 392, 2643.6666666666665 792, 2677 792 L 3168 592 L 3168 1872 Z"></path><path fill="#00e4d6" stroke="#00e4d6" d="M -608 1872 L -304 632 C -270.6666666666667 632, -37.333333333333336 432, -4 432 C 29.333333333333336 432, 262.6666666666667 832, 296 832 C 329.3333333333333 832, 562.6666666666666 432, 596 432 C 629.3333333333334 432, 862.6666666666666 832, 896 832 C 929.3333333333334 832, 1162.6666666666667 432, 1196 432 C 1229.3333333333333 432, 1462.6666666666667 832, 1496 832 C 1529.3333333333333 832, 1762.6666666666667 432, 1796 432 C 1829.3333333333333 432, 2062.6666666666665 832, 2096 832 C 2129.3333333333335 832, 2362.6666666666665 432, 2396 432 C 2429.3333333333335 432, 2662.6666666666665 832, 2696 832 L 3168 632 L 3168 1872 Z"></path><path fill="#00e2d9" stroke="#00e2d9" d="M -608 1872 L -285 671 C -251.66666666666666 671, -18.333333333333336 471, 15 471 C 48.333333333333336 471, 281.6666666666667 871, 315 871 C 348.3333333333333 871, 581.6666666666666 471, 615 471 C 648.3333333333334 471, 881.6666666666666 871, 915 871 C 948.3333333333334 871, 1181.6666666666667 471, 1215 471 C 1248.3333333333333 471, 1481.6666666666667 871, 1515 871 C 1548.3333333333333 871, 1781.6666666666667 471, 1815 471 C 1848.3333333333333 471, 2081.6666666666665 871, 2115 871 C 2148.3333333333335 871, 2381.6666666666665 471, 2415 471 C 2448.3333333333335 471, 2681.6666666666665 871, 2715 871 L 3168 671 L 3168 1872 Z"></path><path fill="#00e0db" stroke="#00e0db" d="M -608 1872 L -266 711 C -232.66666666666666 711, 0.6666666666666643 511, 34 511 C 67.33333333333334 511, 300.6666666666667 911, 334 911 C 367.3333333333333 911, 600.6666666666666 511, 634 511 C 667.3333333333334 511, 900.6666666666666 911, 934 911 C 967.3333333333334 911, 1200.6666666666667 511, 1234 511 C 1267.3333333333333 511, 1500.6666666666667 911, 1534 911 C 1567.3333333333333 911, 1800.6666666666667 511, 1834 511 C 1867.3333333333333 511, 2100.6666666666665 911, 2134 911 C 2167.3333333333335 911, 2400.6666666666665 511, 2434 511 C 2467.3333333333335 511, 2700.6666666666665 911, 2734 911 L 3168 711 L 3168 1872 Z"></path><path fill="#00dedd" stroke="#00dedd" d="M -608 1872 L -247 750 C -213.66666666666666 750, 19.666666666666664 550, 53 550 C 86.33333333333334 550, 319.6666666666667 950, 353 950 C 386.3333333333333 950, 619.6666666666666 550, 653 550 C 686.3333333333334 550, 919.6666666666666 950, 953 950 C 986.3333333333334 950, 1219.6666666666667 550, 1253 550 C 1286.3333333333333 550, 1519.6666666666667 950, 1553 950 C 1586.3333333333333 950, 1819.6666666666667 550, 1853 550 C 1886.3333333333333 550, 2119.6666666666665 950, 2153 950 C 2186.3333333333335 950, 2419.6666666666665 550, 2453 550 C 2486.3333333333335 550, 2719.6666666666665 950, 2753 950 L 3168 750 L 3168 1872 Z"></path><path fill="#00dcdf" stroke="#00dcdf" d="M -608 1872 L -228 790 C -194.66666666666666 790, 38.666666666666664 590, 72 590 C 105.33333333333334 590, 338.6666666666667 990, 372 990 C 405.3333333333333 990, 638.6666666666666 590, 672 590 C 705.3333333333334 590, 938.6666666666666 990, 972 990 C 1005.3333333333334 990, 1238.6666666666667 590, 1272 590 C 1305.3333333333333 590, 1538.6666666666667 990, 1572 990 C 1605.3333333333333 990, 1838.6666666666667 590, 1872 590 C 1905.3333333333333 590, 2138.6666666666665 990, 2172 990 C 2205.3333333333335 990, 2438.6666666666665 590, 2472 590 C 2505.3333333333335 590, 2738.6666666666665 990, 2772 990 L 3168 790 L 3168 1872 Z"></path><path fill="#00dae1" stroke="#00dae1" d="M -608 1872 L -209 829 C -175.66666666666666 829, 57.666666666666664 629, 91 629 C 124.33333333333334 629, 357.6666666666667 1029, 391 1029 C 424.3333333333333 1029, 657.6666666666666 629, 691 629 C 724.3333333333334 629, 957.6666666666666 1029, 991 1029 C 1024.3333333333333 1029, 1257.6666666666667 629, 1291 629 C 1324.3333333333333 629, 1557.6666666666667 1029, 1591 1029 C 1624.3333333333333 1029, 1857.6666666666667 629, 1891 629 C 1924.3333333333333 629, 2157.6666666666665 1029, 2191 1029 C 2224.3333333333335 1029, 2457.6666666666665 629, 2491 629 C 2524.3333333333335 629, 2757.6666666666665 1029, 2791 1029 L 3168 829 L 3168 1872 Z"></path><path fill="#00d8e2" stroke="#00d8e2" d="M -608 1872 L -190 869 C -156.66666666666666 869, 76.66666666666666 669, 110 669 C 143.33333333333334 669, 376.6666666666667 1069, 410 1069 C 443.3333333333333 1069, 676.6666666666666 669, 710 669 C 743.3333333333334 669, 976.6666666666666 1069, 1010 1069 C 1043.3333333333333 1069, 1276.6666666666667 669, 1310 669 C 1343.3333333333333 669, 1576.6666666666667 1069, 1610 1069 C 1643.3333333333333 1069, 1876.6666666666667 669, 1910 669 C 1943.3333333333333 669, 2176.6666666666665 1069, 2210 1069 C 2243.3333333333335 1069, 2476.6666666666665 669, 2510 669 C 2543.3333333333335 669, 2776.6666666666665 1069, 2810 1069 L 3168 869 L 3168 1872 Z"></path><path fill="#00d6e4" stroke="#00d6e4" d="M -608 1872 L -171 908 C -137.66666666666666 908, 95.66666666666666 708, 129 708 C 162.33333333333334 708, 395.6666666666667 1108, 429 1108 C 462.3333333333333 1108, 695.6666666666666 708, 729 708 C 762.3333333333334 708, 995.6666666666666 1108, 1029 1108 C 1062.3333333333333 1108, 1295.6666666666667 708, 1329 708 C 1362.3333333333333 708, 1595.6666666666667 1108, 1629 1108 C 1662.3333333333333 1108, 1895.6666666666667 708, 1929 708 C 1962.3333333333333 708, 2195.6666666666665 1108, 2229 1108 C 2262.3333333333335 1108, 2495.6666666666665 708, 2529 708 C 2562.3333333333335 708, 2795.6666666666665 1108, 2829 1108 L 3168 908 L 3168 1872 Z"></path><path fill="#00d4e5" stroke="#00d4e5" d="M -608 1872 L -152 948 C -118.66666666666666 948, 114.66666666666666 748, 148 748 C 181.33333333333334 748, 414.6666666666667 1148, 448 1148 C 481.3333333333333 1148, 714.6666666666666 748, 748 748 C 781.3333333333334 748, 1014.6666666666666 1148, 1048 1148 C 1081.3333333333333 1148, 1314.6666666666667 748, 1348 748 C 1381.3333333333333 748, 1614.6666666666667 1148, 1648 1148 C 1681.3333333333333 1148, 1914.6666666666667 748, 1948 748 C 1981.3333333333333 748, 2214.6666666666665 1148, 2248 1148 C 2281.3333333333335 1148, 2514.6666666666665 748, 2548 748 C 2581.3333333333335 748, 2814.6666666666665 1148, 2848 1148 L 3168 948 L 3168 1872 Z"></path><path fill="#00d1e6" stroke="#00d1e6" d="M -608 1872 L -133 987 C -99.66666666666666 987, 133.66666666666666 787, 167 787 C 200.33333333333334 787, 433.6666666666667 1187, 467 1187 C 500.3333333333333 1187, 733.6666666666666 787, 767 787 C 800.3333333333334 787, 1033.6666666666667 1187, 1067 1187 C 1100.3333333333333 1187, 1333.6666666666667 787, 1367 787 C 1400.3333333333333 787, 1633.6666666666667 1187, 1667 1187 C 1700.3333333333333 1187, 1933.6666666666667 787, 1967 787 C 2000.3333333333333 787, 2233.6666666666665 1187, 2267 1187 C 2300.3333333333335 1187, 2533.6666666666665 787, 2567 787 L 3168 987 L 3168 1872 Z"></path><path fill="#00cfe6" stroke="#00cfe6" d="M -608 1872 L -114 1027 C -80.66666666666666 1027, 152.66666666666666 827, 186 827 C 219.33333333333334 827, 452.6666666666667 1227, 486 1227 C 519.3333333333334 1227, 752.6666666666666 827, 786 827 C 819.3333333333334 827, 1052.6666666666667 1227, 1086 1227 C 1119.3333333333333 1227, 1352.6666666666667 827, 1386 827 C 1419.3333333333333 827, 1652.6666666666667 1227, 1686 1227 C 1719.3333333333333 1227, 1952.6666666666667 827, 1986 827 C 2019.3333333333333 827, 2252.6666666666665 1227, 2286 1227 C 2319.3333333333335 1227, 2552.6666666666665 827, 2586 827 L 3168 1027 L 3168 1872 Z"></path><path fill="#00cde7" stroke="#00cde7" d="M -608 1872 L -95 1066 C -61.666666666666664 1066, 171.66666666666666 866, 205 866 C 238.33333333333334 866, 471.6666666666667 1266, 505 1266 C 538.3333333333334 1266, 771.6666666666666 866, 805 866 C 838.3333333333334 866, 1071.6666666666667 1266, 1105 1266 C 1138.3333333333333 1266, 1371.6666666666667 866, 1405 866 C 1438.3333333333333 866, 1671.6666666666667 1266, 1705 1266 C 1738.3333333333333 1266, 1971.6666666666667 866, 2005 866 C 2038.3333333333333 866, 2271.6666666666665 1266, 2305 1266 C 2338.3333333333335 1266, 2571.6666666666665 866, 2605 866 L 3168 1066 L 3168 1872 Z"></path><path fill="#00cae7" stroke="#00cae7" d="M -608 1872 L -76 1106 C -42.666666666666664 1106, 190.66666666666666 906, 224 906 C 257.3333333333333 906, 490.6666666666667 1306, 524 1306 C 557.3333333333334 1306, 790.6666666666666 906, 824 906 C 857.3333333333334 906, 1090.6666666666667 1306, 1124 1306 C 1157.3333333333333 1306, 1390.6666666666667 906, 1424 906 C 1457.3333333333333 906, 1690.6666666666667 1306, 1724 1306 C 1757.3333333333333 1306, 1990.6666666666667 906, 2024 906 C 2057.3333333333335 906, 2290.6666666666665 1306, 2324 1306 C 2357.3333333333335 1306, 2590.6666666666665 906, 2624 906 L 3168 1106 L 3168 1872 Z"></path><path fill="#00c8e7" stroke="#00c8e7" d="M -608 1872 L -57 1145 C -23.666666666666664 1145, 209.66666666666666 945, 243 945 C 276.3333333333333 945, 509.6666666666667 1345, 543 1345 C 576.3333333333334 1345, 809.6666666666666 945, 843 945 C 876.3333333333334 945, 1109.6666666666667 1345, 1143 1345 C 1176.3333333333333 1345, 1409.6666666666667 945, 1443 945 C 1476.3333333333333 945, 1709.6666666666667 1345, 1743 1345 C 1776.3333333333333 1345, 2009.6666666666667 945, 2043 945 C 2076.3333333333335 945, 2309.6666666666665 1345, 2343 1345 C 2376.3333333333335 1345, 2609.6666666666665 945, 2643 945 L 3168 1145 L 3168 1872 Z"></path><path fill="#12c6e7" stroke="#12c6e7" d="M -608 1872 L -38 1185 C -4.666666666666664 1185, 228.66666666666666 985, 262 985 C 295.3333333333333 985, 528.6666666666666 1385, 562 1385 C 595.3333333333334 1385, 828.6666666666666 985, 862 985 C 895.3333333333334 985, 1128.6666666666667 1385, 1162 1385 C 1195.3333333333333 1385, 1428.6666666666667 985, 1462 985 C 1495.3333333333333 985, 1728.6666666666667 1385, 1762 1385 C 1795.3333333333333 1385, 2028.6666666666667 985, 2062 985 C 2095.3333333333335 985, 2328.6666666666665 1385, 2362 1385 C 2395.3333333333335 1385, 2628.6666666666665 985, 2662 985 L 3168 1185 L 3168 1872 Z"></path><path fill="#22c3e7" stroke="#22c3e7" d="M -608 1872 L -19 1224 C 14.333333333333336 1224, 247.66666666666666 1024, 281 1024 C 314.3333333333333 1024, 547.6666666666666 1424, 581 1424 C 614.3333333333334 1424, 847.6666666666666 1024, 881 1024 C 914.3333333333334 1024, 1147.6666666666667 1424, 1181 1424 C 1214.3333333333333 1424, 1447.6666666666667 1024, 1481 1024 C 1514.3333333333333 1024, 1747.6666666666667 1424, 1781 1424 C 1814.3333333333333 1424, 2047.6666666666667 1024, 2081 1024 C 2114.3333333333335 1024, 2347.6666666666665 1424, 2381 1424 C 2414.3333333333335 1424, 2647.6666666666665 1024, 2681 1024 L 3168 1224 L 3168 1872 Z"></path><path fill="#2dc1e6" stroke="#2dc1e6" d="M -608 1872 L 0 1264 C 33.333333333333336 1264, 266.6666666666667 1064, 300 1064 C 333.3333333333333 1064, 566.6666666666666 1464, 600 1464 C 633.3333333333334 1464, 866.6666666666666 1064, 900 1064 C 933.3333333333334 1064, 1166.6666666666667 1464, 1200 1464 C 1233.3333333333333 1464, 1466.6666666666667 1064, 1500 1064 C 1533.3333333333333 1064, 1766.6666666666667 1464, 1800 1464 C 1833.3333333333333 1464, 2066.6666666666665 1064, 2100 1064 C 2133.3333333333335 1064, 2366.6666666666665 1464, 2400 1464 C 2433.3333333333335 1464, 2666.6666666666665 1064, 2700 1064 L 3168 1264 L 3168 1872 Z"></path></svg>